# EFab pipe bundle - generated from pipe.obj (four vertical pipes)
mtllib pipe.mtl
o pipes_bundle
v 0.300001 0.000000 0.080000
v 0.144438 0.000000 0.144436
v 0.080001 0.000000 0.300000
v 0.144438 0.000000 0.455563
v 0.300001 0.000000 0.520000
v 0.455565 0.000000 0.455563
v 0.520001 0.000000 0.300000
v 0.455565 0.000000 0.144436
v 0.300001 0.500000 0.080000
v 0.144438 0.500000 0.144436
v 0.080001 0.500000 0.300000
v 0.144438 0.500000 0.455563
v 0.300001 0.500000 0.520000
v 0.455565 0.500000 0.455563
v 0.520001 0.500000 0.300000
v 0.455565 0.500000 0.144436
vt 0.816951 0.018980
vt 0.816951 0.981912
vt 0.517357 0.981912
vt 0.517357 0.018980
vt 0.851252 0.017074
vt 0.851252 0.983818
vt 0.550471 0.983818
vt 0.550471 0.017074
vt 0.217762 0.018980
vt 0.217762 0.981912
vt 0.517357 0.981912
vt 0.517357 0.018980
vt 0.249691 0.017074
vt 0.249691 0.983818
vt 0.550471 0.983818
vt 0.550471 0.017074
vt 0.851252 0.983818
vt 0.851252 0.017074
vt 0.217762 0.981912
vt 0.217762 0.018980
vt 0.249691 0.983818
vt 0.249691 0.017074
vt 0.816951 0.981912
vt 0.816951 0.018980
vt 0.833993 0.844330
vt 0.494974 0.984756
vt 0.155956 0.844330
vt 0.974419 0.505312
vt 0.015530 0.505312
vt 0.494974 0.025867
vt 0.155956 0.166293
vt 0.833993 0.166293
vt 0.820102 0.179229
vt 0.190314 0.179229
vt 0.505208 0.048795
vt 0.950535 0.494123
vt 0.059880 0.494123
vt 0.820102 0.809016
vt 0.190314 0.809016
vt 0.505208 0.939450
vn 0.9239 0.0000 -0.3827
vn 0.3827 0.0000 0.9239
vn -0.9239 0.0000 0.3827
vn -0.3827 0.0000 -0.9239
vn 0.3827 0.0000 -0.9239
vn 0.9239 0.0000 0.3827
vn -0.3827 0.0000 0.9239
vn -0.9239 0.0000 -0.3827
vn 0.0000 1.0000 0.0000
vn 0.0000 -1.0000 0.0000
usemtl None
s off
f 8/1/1 16/2/1 15/3/1 7/4/1
f 6/5/2 14/6/2 13/7/2 5/8/2
f 4/9/3 12/10/3 11/11/3 3/12/3
f 2/13/4 10/14/4 9/15/4 1/16/4
f 1/16/5 9/15/5 16/17/5 8/18/5
f 7/4/6 15/3/6 14/19/6 6/20/6
f 5/8/7 13/7/7 12/21/7 4/22/7
f 3/12/8 11/11/8 10/23/8 2/24/8
f 16/25/9 9/26/9 10/27/9
f 15/28/9 16/25/9 10/27/9
f 15/28/9 10/27/9 11/29/9
f 11/29/9 13/30/9 15/28/9
f 12/31/9 13/30/9 11/29/9
f 13/30/9 14/32/9 15/28/9
f 8/33/10 2/34/10 1/35/10
f 7/36/10 2/34/10 8/33/10
f 7/36/10 3/37/10 2/34/10
f 6/38/10 3/37/10 7/36/10
f 6/38/10 4/39/10 3/37/10
f 5/40/10 4/39/10 6/38/10
v 0.300001 0.500000 0.080000
v 0.144438 0.500000 0.144436
v 0.080001 0.500000 0.300000
v 0.144438 0.500000 0.455563
v 0.300001 0.500000 0.520000
v 0.455565 0.500000 0.455563
v 0.520001 0.500000 0.300000
v 0.455565 0.500000 0.144436
v 0.300001 1.000000 0.080000
v 0.144438 1.000000 0.144436
v 0.080001 1.000000 0.300000
v 0.144438 1.000000 0.455563
v 0.300001 1.000000 0.520000
v 0.455565 1.000000 0.455563
v 0.520001 1.000000 0.300000
v 0.455565 1.000000 0.144436
vt 0.816951 0.018980
vt 0.816951 0.981912
vt 0.517357 0.981912
vt 0.517357 0.018980
vt 0.851252 0.017074
vt 0.851252 0.983818
vt 0.550471 0.983818
vt 0.550471 0.017074
vt 0.217762 0.018980
vt 0.217762 0.981912
vt 0.517357 0.981912
vt 0.517357 0.018980
vt 0.249691 0.017074
vt 0.249691 0.983818
vt 0.550471 0.983818
vt 0.550471 0.017074
vt 0.851252 0.983818
vt 0.851252 0.017074
vt 0.217762 0.981912
vt 0.217762 0.018980
vt 0.249691 0.983818
vt 0.249691 0.017074
vt 0.816951 0.981912
vt 0.816951 0.018980
vt 0.833993 0.844330
vt 0.494974 0.984756
vt 0.155956 0.844330
vt 0.974419 0.505312
vt 0.015530 0.505312
vt 0.494974 0.025867
vt 0.155956 0.166293
vt 0.833993 0.166293
vt 0.820102 0.179229
vt 0.190314 0.179229
vt 0.505208 0.048795
vt 0.950535 0.494123
vt 0.059880 0.494123
vt 0.820102 0.809016
vt 0.190314 0.809016
vt 0.505208 0.939450
vn 0.9239 0.0000 -0.3827
vn 0.3827 0.0000 0.9239
vn -0.9239 0.0000 0.3827
vn -0.3827 0.0000 -0.9239
vn 0.3827 0.0000 -0.9239
vn 0.9239 0.0000 0.3827
vn -0.3827 0.0000 0.9239
vn -0.9239 0.0000 -0.3827
vn 0.0000 1.0000 0.0000
vn 0.0000 -1.0000 0.0000
usemtl None
s off
f 24/41/11 32/42/11 31/43/11 23/44/11
f 22/45/12 30/46/12 29/47/12 21/48/12
f 20/49/13 28/50/13 27/51/13 19/52/13
f 18/53/14 26/54/14 25/55/14 17/56/14
f 17/56/15 25/55/15 32/57/15 24/58/15
f 23/44/16 31/43/16 30/59/16 22/60/16
f 21/48/17 29/47/17 28/61/17 20/62/17
f 19/52/18 27/51/18 26/63/18 18/64/18
f 32/65/19 25/66/19 26/67/19
f 31/68/19 32/65/19 26/67/19
f 31/68/19 26/67/19 27/69/19
f 27/69/19 29/70/19 31/68/19
f 28/71/19 29/70/19 27/69/19
f 29/70/19 30/72/19 31/68/19
f 24/73/20 18/74/20 17/75/20
f 23/76/20 18/74/20 24/73/20
f 23/76/20 19/77/20 18/74/20
f 22/78/20 19/77/20 23/76/20
f 22/78/20 20/79/20 19/77/20
f 21/80/20 20/79/20 22/78/20
v 0.700001 0.000000 0.080000
v 0.544438 0.000000 0.144436
v 0.480001 0.000000 0.300000
v 0.544438 0.000000 0.455563
v 0.700001 0.000000 0.520000
v 0.855565 0.000000 0.455563
v 0.920001 0.000000 0.300000
v 0.855565 0.000000 0.144436
v 0.700001 0.500000 0.080000
v 0.544438 0.500000 0.144436
v 0.480001 0.500000 0.300000
v 0.544438 0.500000 0.455563
v 0.700001 0.500000 0.520000
v 0.855565 0.500000 0.455563
v 0.920001 0.500000 0.300000
v 0.855565 0.500000 0.144436
vt 0.816951 0.018980
vt 0.816951 0.981912
vt 0.517357 0.981912
vt 0.517357 0.018980
vt 0.851252 0.017074
vt 0.851252 0.983818
vt 0.550471 0.983818
vt 0.550471 0.017074
vt 0.217762 0.018980
vt 0.217762 0.981912
vt 0.517357 0.981912
vt 0.517357 0.018980
vt 0.249691 0.017074
vt 0.249691 0.983818
vt 0.550471 0.983818
vt 0.550471 0.017074
vt 0.851252 0.983818
vt 0.851252 0.017074
vt 0.217762 0.981912
vt 0.217762 0.018980
vt 0.249691 0.983818
vt 0.249691 0.017074
vt 0.816951 0.981912
vt 0.816951 0.018980
vt 0.833993 0.844330
vt 0.494974 0.984756
vt 0.155956 0.844330
vt 0.974419 0.505312
vt 0.015530 0.505312
vt 0.494974 0.025867
vt 0.155956 0.166293
vt 0.833993 0.166293
vt 0.820102 0.179229
vt 0.190314 0.179229
vt 0.505208 0.048795
vt 0.950535 0.494123
vt 0.059880 0.494123
vt 0.820102 0.809016
vt 0.190314 0.809016
vt 0.505208 0.939450
vn 0.9239 0.0000 -0.3827
vn 0.3827 0.0000 0.9239
vn -0.9239 0.0000 0.3827
vn -0.3827 0.0000 -0.9239
vn 0.3827 0.0000 -0.9239
vn 0.9239 0.0000 0.3827
vn -0.3827 0.0000 0.9239
vn -0.9239 0.0000 -0.3827
vn 0.0000 1.0000 0.0000
vn 0.0000 -1.0000 0.0000
usemtl None
s off
f 40/81/21 48/82/21 47/83/21 39/84/21
f 38/85/22 46/86/22 45/87/22 37/88/22
f 36/89/23 44/90/23 43/91/23 35/92/23
f 34/93/24 42/94/24 41/95/24 33/96/24
f 33/96/25 41/95/25 48/97/25 40/98/25
f 39/84/26 47/83/26 46/99/26 38/100/26
f 37/88/27 45/87/27 44/101/27 36/102/27
f 35/92/28 43/91/28 42/103/28 34/104/28
f 48/105/29 41/106/29 42/107/29
f 47/108/29 48/105/29 42/107/29
f 47/108/29 42/107/29 43/109/29
f 43/109/29 45/110/29 47/108/29
f 44/111/29 45/110/29 43/109/29
f 45/110/29 46/112/29 47/108/29
f 40/113/30 34/114/30 33/115/30
f 39/116/30 34/114/30 40/113/30
f 39/116/30 35/117/30 34/114/30
f 38/118/30 35/117/30 39/116/30
f 38/118/30 36/119/30 35/117/30
f 37/120/30 36/119/30 38/118/30
v 0.700001 0.500000 0.080000
v 0.544438 0.500000 0.144436
v 0.480001 0.500000 0.300000
v 0.544438 0.500000 0.455563
v 0.700001 0.500000 0.520000
v 0.855565 0.500000 0.455563
v 0.920001 0.500000 0.300000
v 0.855565 0.500000 0.144436
v 0.700001 1.000000 0.080000
v 0.544438 1.000000 0.144436
v 0.480001 1.000000 0.300000
v 0.544438 1.000000 0.455563
v 0.700001 1.000000 0.520000
v 0.855565 1.000000 0.455563
v 0.920001 1.000000 0.300000
v 0.855565 1.000000 0.144436
vt 0.816951 0.018980
vt 0.816951 0.981912
vt 0.517357 0.981912
vt 0.517357 0.018980
vt 0.851252 0.017074
vt 0.851252 0.983818
vt 0.550471 0.983818
vt 0.550471 0.017074
vt 0.217762 0.018980
vt 0.217762 0.981912
vt 0.517357 0.981912
vt 0.517357 0.018980
vt 0.249691 0.017074
vt 0.249691 0.983818
vt 0.550471 0.983818
vt 0.550471 0.017074
vt 0.851252 0.983818
vt 0.851252 0.017074
vt 0.217762 0.981912
vt 0.217762 0.018980
vt 0.249691 0.983818
vt 0.249691 0.017074
vt 0.816951 0.981912
vt 0.816951 0.018980
vt 0.833993 0.844330
vt 0.494974 0.984756
vt 0.155956 0.844330
vt 0.974419 0.505312
vt 0.015530 0.505312
vt 0.494974 0.025867
vt 0.155956 0.166293
vt 0.833993 0.166293
vt 0.820102 0.179229
vt 0.190314 0.179229
vt 0.505208 0.048795
vt 0.950535 0.494123
vt 0.059880 0.494123
vt 0.820102 0.809016
vt 0.190314 0.809016
vt 0.505208 0.939450
vn 0.9239 0.0000 -0.3827
vn 0.3827 0.0000 0.9239
vn -0.9239 0.0000 0.3827
vn -0.3827 0.0000 -0.9239
vn 0.3827 0.0000 -0.9239
vn 0.9239 0.0000 0.3827
vn -0.3827 0.0000 0.9239
vn -0.9239 0.0000 -0.3827
vn 0.0000 1.0000 0.0000
vn 0.0000 -1.0000 0.0000
usemtl None
s off
f 56/121/31 64/122/31 63/123/31 55/124/31
f 54/125/32 62/126/32 61/127/32 53/128/32
f 52/129/33 60/130/33 59/131/33 51/132/33
f 50/133/34 58/134/34 57/135/34 49/136/34
f 49/136/35 57/135/35 64/137/35 56/138/35
f 55/124/36 63/123/36 62/139/36 54/140/36
f 53/128/37 61/127/37 60/141/37 52/142/37
f 51/132/38 59/131/38 58/143/38 50/144/38
f 64/145/39 57/146/39 58/147/39
f 63/148/39 64/145/39 58/147/39
f 63/148/39 58/147/39 59/149/39
f 59/149/39 61/150/39 63/148/39
f 60/151/39 61/150/39 59/149/39
f 61/150/39 62/152/39 63/148/39
f 56/153/40 50/154/40 49/155/40
f 55/156/40 50/154/40 56/153/40
f 55/156/40 51/157/40 50/154/40
f 54/158/40 51/157/40 55/156/40
f 54/158/40 52/159/40 51/157/40
f 53/160/40 52/159/40 54/158/40
v 0.300001 0.000000 0.480000
v 0.144438 0.000000 0.544436
v 0.080001 0.000000 0.700000
v 0.144438 0.000000 0.855563
v 0.300001 0.000000 0.920000
v 0.455565 0.000000 0.855563
v 0.520001 0.000000 0.700000
v 0.455565 0.000000 0.544436
v 0.300001 0.500000 0.480000
v 0.144438 0.500000 0.544436
v 0.080001 0.500000 0.700000
v 0.144438 0.500000 0.855563
v 0.300001 0.500000 0.920000
v 0.455565 0.500000 0.855563
v 0.520001 0.500000 0.700000
v 0.455565 0.500000 0.544436
vt 0.816951 0.018980
vt 0.816951 0.981912
vt 0.517357 0.981912
vt 0.517357 0.018980
vt 0.851252 0.017074
vt 0.851252 0.983818
vt 0.550471 0.983818
vt 0.550471 0.017074
vt 0.217762 0.018980
vt 0.217762 0.981912
vt 0.517357 0.981912
vt 0.517357 0.018980
vt 0.249691 0.017074
vt 0.249691 0.983818
vt 0.550471 0.983818
vt 0.550471 0.017074
vt 0.851252 0.983818
vt 0.851252 0.017074
vt 0.217762 0.981912
vt 0.217762 0.018980
vt 0.249691 0.983818
vt 0.249691 0.017074
vt 0.816951 0.981912
vt 0.816951 0.018980
vt 0.833993 0.844330
vt 0.494974 0.984756
vt 0.155956 0.844330
vt 0.974419 0.505312
vt 0.015530 0.505312
vt 0.494974 0.025867
vt 0.155956 0.166293
vt 0.833993 0.166293
vt 0.820102 0.179229
vt 0.190314 0.179229
vt 0.505208 0.048795
vt 0.950535 0.494123
vt 0.059880 0.494123
vt 0.820102 0.809016
vt 0.190314 0.809016
vt 0.505208 0.939450
vn 0.9239 0.0000 -0.3827
vn 0.3827 0.0000 0.9239
vn -0.9239 0.0000 0.3827
vn -0.3827 0.0000 -0.9239
vn 0.3827 0.0000 -0.9239
vn 0.9239 0.0000 0.3827
vn -0.3827 0.0000 0.9239
vn -0.9239 0.0000 -0.3827
vn 0.0000 1.0000 0.0000
vn 0.0000 -1.0000 0.0000
usemtl None
s off
f 72/161/41 80/162/41 79/163/41 71/164/41
f 70/165/42 78/166/42 77/167/42 69/168/42
f 68/169/43 76/170/43 75/171/43 67/172/43
f 66/173/44 74/174/44 73/175/44 65/176/44
f 65/176/45 73/175/45 80/177/45 72/178/45
f 71/164/46 79/163/46 78/179/46 70/180/46
f 69/168/47 77/167/47 76/181/47 68/182/47
f 67/172/48 75/171/48 74/183/48 66/184/48
f 80/185/49 73/186/49 74/187/49
f 79/188/49 80/185/49 74/187/49
f 79/188/49 74/187/49 75/189/49
f 75/189/49 77/190/49 79/188/49
f 76/191/49 77/190/49 75/189/49
f 77/190/49 78/192/49 79/188/49
f 72/193/50 66/194/50 65/195/50
f 71/196/50 66/194/50 72/193/50
f 71/196/50 67/197/50 66/194/50
f 70/198/50 67/197/50 71/196/50
f 70/198/50 68/199/50 67/197/50
f 69/200/50 68/199/50 70/198/50
v 0.300001 0.500000 0.480000
v 0.144438 0.500000 0.544436
v 0.080001 0.500000 0.700000
v 0.144438 0.500000 0.855563
v 0.300001 0.500000 0.920000
v 0.455565 0.500000 0.855563
v 0.520001 0.500000 0.700000
v 0.455565 0.500000 0.544436
v 0.300001 1.000000 0.480000
v 0.144438 1.000000 0.544436
v 0.080001 1.000000 0.700000
v 0.144438 1.000000 0.855563
v 0.300001 1.000000 0.920000
v 0.455565 1.000000 0.855563
v 0.520001 1.000000 0.700000
v 0.455565 1.000000 0.544436
vt 0.816951 0.018980
vt 0.816951 0.981912
vt 0.517357 0.981912
vt 0.517357 0.018980
vt 0.851252 0.017074
vt 0.851252 0.983818
vt 0.550471 0.983818
vt 0.550471 0.017074
vt 0.217762 0.018980
vt 0.217762 0.981912
vt 0.517357 0.981912
vt 0.517357 0.018980
vt 0.249691 0.017074
vt 0.249691 0.983818
vt 0.550471 0.983818
vt 0.550471 0.017074
vt 0.851252 0.983818
vt 0.851252 0.017074
vt 0.217762 0.981912
vt 0.217762 0.018980
vt 0.249691 0.983818
vt 0.249691 0.017074
vt 0.816951 0.981912
vt 0.816951 0.018980
vt 0.833993 0.844330
vt 0.494974 0.984756
vt 0.155956 0.844330
vt 0.974419 0.505312
vt 0.015530 0.505312
vt 0.494974 0.025867
vt 0.155956 0.166293
vt 0.833993 0.166293
vt 0.820102 0.179229
vt 0.190314 0.179229
vt 0.505208 0.048795
vt 0.950535 0.494123
vt 0.059880 0.494123
vt 0.820102 0.809016
vt 0.190314 0.809016
vt 0.505208 0.939450
vn 0.9239 0.0000 -0.3827
vn 0.3827 0.0000 0.9239
vn -0.9239 0.0000 0.3827
vn -0.3827 0.0000 -0.9239
vn 0.3827 0.0000 -0.9239
vn 0.9239 0.0000 0.3827
vn -0.3827 0.0000 0.9239
vn -0.9239 0.0000 -0.3827
vn 0.0000 1.0000 0.0000
vn 0.0000 -1.0000 0.0000
usemtl None
s off
f 88/201/51 96/202/51 95/203/51 87/204/51
f 86/205/52 94/206/52 93/207/52 85/208/52
f 84/209/53 92/210/53 91/211/53 83/212/53
f 82/213/54 90/214/54 89/215/54 81/216/54
f 81/216/55 89/215/55 96/217/55 88/218/55
f 87/204/56 95/203/56 94/219/56 86/220/56
f 85/208/57 93/207/57 92/221/57 84/222/57
f 83/212/58 91/211/58 90/223/58 82/224/58
f 96/225/59 89/226/59 90/227/59
f 95/228/59 96/225/59 90/227/59
f 95/228/59 90/227/59 91/229/59
f 91/229/59 93/230/59 95/228/59
f 92/231/59 93/230/59 91/229/59
f 93/230/59 94/232/59 95/228/59
f 88/233/60 82/234/60 81/235/60
f 87/236/60 82/234/60 88/233/60
f 87/236/60 83/237/60 82/234/60
f 86/238/60 83/237/60 87/236/60
f 86/238/60 84/239/60 83/237/60
f 85/240/60 84/239/60 86/238/60
v 0.700001 0.000000 0.480000
v 0.544438 0.000000 0.544436
v 0.480001 0.000000 0.700000
v 0.544438 0.000000 0.855563
v 0.700001 0.000000 0.920000
v 0.855565 0.000000 0.855563
v 0.920001 0.000000 0.700000
v 0.855565 0.000000 0.544436
v 0.700001 0.500000 0.480000
v 0.544438 0.500000 0.544436
v 0.480001 0.500000 0.700000
v 0.544438 0.500000 0.855563
v 0.700001 0.500000 0.920000
v 0.855565 0.500000 0.855563
v 0.920001 0.500000 0.700000
v 0.855565 0.500000 0.544436
vt 0.816951 0.018980
vt 0.816951 0.981912
vt 0.517357 0.981912
vt 0.517357 0.018980
vt 0.851252 0.017074
vt 0.851252 0.983818
vt 0.550471 0.983818
vt 0.550471 0.017074
vt 0.217762 0.018980
vt 0.217762 0.981912
vt 0.517357 0.981912
vt 0.517357 0.018980
vt 0.249691 0.017074
vt 0.249691 0.983818
vt 0.550471 0.983818
vt 0.550471 0.017074
vt 0.851252 0.983818
vt 0.851252 0.017074
vt 0.217762 0.981912
vt 0.217762 0.018980
vt 0.249691 0.983818
vt 0.249691 0.017074
vt 0.816951 0.981912
vt 0.816951 0.018980
vt 0.833993 0.844330
vt 0.494974 0.984756
vt 0.155956 0.844330
vt 0.974419 0.505312
vt 0.015530 0.505312
vt 0.494974 0.025867
vt 0.155956 0.166293
vt 0.833993 0.166293
vt 0.820102 0.179229
vt 0.190314 0.179229
vt 0.505208 0.048795
vt 0.950535 0.494123
vt 0.059880 0.494123
vt 0.820102 0.809016
vt 0.190314 0.809016
vt 0.505208 0.939450
vn 0.9239 0.0000 -0.3827
vn 0.3827 0.0000 0.9239
vn -0.9239 0.0000 0.3827
vn -0.3827 0.0000 -0.9239
vn 0.3827 0.0000 -0.9239
vn 0.9239 0.0000 0.3827
vn -0.3827 0.0000 0.9239
vn -0.9239 0.0000 -0.3827
vn 0.0000 1.0000 0.0000
vn 0.0000 -1.0000 0.0000
usemtl None
s off
f 104/241/61 112/242/61 111/243/61 103/244/61
f 102/245/62 110/246/62 109/247/62 101/248/62
f 100/249/63 108/250/63 107/251/63 99/252/63
f 98/253/64 106/254/64 105/255/64 97/256/64
f 97/256/65 105/255/65 112/257/65 104/258/65
f 103/244/66 111/243/66 110/259/66 102/260/66
f 101/248/67 109/247/67 108/261/67 100/262/67
f 99/252/68 107/251/68 106/263/68 98/264/68
f 112/265/69 105/266/69 106/267/69
f 111/268/69 112/265/69 106/267/69
f 111/268/69 106/267/69 107/269/69
f 107/269/69 109/270/69 111/268/69
f 108/271/69 109/270/69 107/269/69
f 109/270/69 110/272/69 111/268/69
f 104/273/70 98/274/70 97/275/70
f 103/276/70 98/274/70 104/273/70
f 103/276/70 99/277/70 98/274/70
f 102/278/70 99/277/70 103/276/70
f 102/278/70 100/279/70 99/277/70
f 101/280/70 100/279/70 102/278/70
v 0.700001 0.500000 0.480000
v 0.544438 0.500000 0.544436
v 0.480001 0.500000 0.700000
v 0.544438 0.500000 0.855563
v 0.700001 0.500000 0.920000
v 0.855565 0.500000 0.855563
v 0.920001 0.500000 0.700000
v 0.855565 0.500000 0.544436
v 0.700001 1.000000 0.480000
v 0.544438 1.000000 0.544436
v 0.480001 1.000000 0.700000
v 0.544438 1.000000 0.855563
v 0.700001 1.000000 0.920000
v 0.855565 1.000000 0.855563
v 0.920001 1.000000 0.700000
v 0.855565 1.000000 0.544436
vt 0.816951 0.018980
vt 0.816951 0.981912
vt 0.517357 0.981912
vt 0.517357 0.018980
vt 0.851252 0.017074
vt 0.851252 0.983818
vt 0.550471 0.983818
vt 0.550471 0.017074
vt 0.217762 0.018980
vt 0.217762 0.981912
vt 0.517357 0.981912
vt 0.517357 0.018980
vt 0.249691 0.017074
vt 0.249691 0.983818
vt 0.550471 0.983818
vt 0.550471 0.017074
vt 0.851252 0.983818
vt 0.851252 0.017074
vt 0.217762 0.981912
vt 0.217762 0.018980
vt 0.249691 0.983818
vt 0.249691 0.017074
vt 0.816951 0.981912
vt 0.816951 0.018980
vt 0.833993 0.844330
vt 0.494974 0.984756
vt 0.155956 0.844330
vt 0.974419 0.505312
vt 0.015530 0.505312
vt 0.494974 0.025867
vt 0.155956 0.166293
vt 0.833993 0.166293
vt 0.820102 0.179229
vt 0.190314 0.179229
vt 0.505208 0.048795
vt 0.950535 0.494123
vt 0.059880 0.494123
vt 0.820102 0.809016
vt 0.190314 0.809016
vt 0.505208 0.939450
vn 0.9239 0.0000 -0.3827
vn 0.3827 0.0000 0.9239
vn -0.9239 0.0000 0.3827
vn -0.3827 0.0000 -0.9239
vn 0.3827 0.0000 -0.9239
vn 0.9239 0.0000 0.3827
vn -0.3827 0.0000 0.9239
vn -0.9239 0.0000 -0.3827
vn 0.0000 1.0000 0.0000
vn 0.0000 -1.0000 0.0000
usemtl None
s off
f 120/281/71 128/282/71 127/283/71 119/284/71
f 118/285/72 126/286/72 125/287/72 117/288/72
f 116/289/73 124/290/73 123/291/73 115/292/73
f 114/293/74 122/294/74 121/295/74 113/296/74
f 113/296/75 121/295/75 128/297/75 120/298/75
f 119/284/76 127/283/76 126/299/76 118/300/76
f 117/288/77 125/287/77 124/301/77 116/302/77
f 115/292/78 123/291/78 122/303/78 114/304/78
f 128/305/79 121/306/79 122/307/79
f 127/308/79 128/305/79 122/307/79
f 127/308/79 122/307/79 123/309/79
f 123/309/79 125/310/79 127/308/79
f 124/311/79 125/310/79 123/309/79
f 125/310/79 126/312/79 127/308/79
f 120/313/80 114/314/80 113/315/80
f 119/316/80 114/314/80 120/313/80
f 119/316/80 115/317/80 114/314/80
f 118/318/80 115/317/80 119/316/80
f 118/318/80 116/319/80 115/317/80
f 117/320/80 116/319/80 118/318/80
