# EFab pipe state 0 - generated from old 1.12 blockstate submodels
mtllib pipes_old.mtl
o pipes_state0
g s0_pipe
v 0.500000 0.250001 0.030000
v 0.500000 0.094438 0.094436
v 0.500000 0.030001 0.250000
v 0.500000 0.094438 0.405563
v 0.500000 0.250001 0.470000
v 0.500000 0.405565 0.405563
v 0.500000 0.470001 0.250000
v 0.500000 0.405565 0.094436
v 0.000000 0.250001 0.030000
v 0.000000 0.094438 0.094436
v 0.000000 0.030001 0.250000
v 0.000000 0.094438 0.405563
v 0.000000 0.250001 0.470000
v 0.000000 0.405565 0.405563
v 0.000000 0.470001 0.250000
v 0.000000 0.405565 0.094436
vt 0.816951 0.018980
vt 0.816951 0.981912
vt 0.517357 0.981912
vt 0.517357 0.018980
vt 0.851252 0.017074
vt 0.851252 0.983818
vt 0.550471 0.983818
vt 0.550471 0.017074
vt 0.217762 0.018980
vt 0.217762 0.981912
vt 0.517357 0.981912
vt 0.517357 0.018980
vt 0.249691 0.017074
vt 0.249691 0.983818
vt 0.550471 0.983818
vt 0.550471 0.017074
vt 0.851252 0.983818
vt 0.851252 0.017074
vt 0.217762 0.981912
vt 0.217762 0.018980
vt 0.249691 0.983818
vt 0.249691 0.017074
vt 0.816951 0.981912
vt 0.816951 0.018980
vt 0.833993 0.844330
vt 0.494974 0.984756
vt 0.155956 0.844330
vt 0.974419 0.505312
vt 0.015530 0.505312
vt 0.494974 0.025867
vt 0.155956 0.166293
vt 0.833993 0.166293
vt 0.820102 0.179229
vt 0.190314 0.179229
vt 0.505208 0.048795
vt 0.950535 0.494123
vt 0.059880 0.494123
vt 0.820102 0.809016
vt 0.190314 0.809016
vt 0.505208 0.939450
vn 0.000000 0.923877 -0.382690
vn 0.000000 0.382690 0.923877
vn -0.000000 -0.923877 0.382690
vn -0.000000 -0.382690 -0.923877
vn 0.000000 0.382690 -0.923877
vn 0.000000 0.923877 0.382690
vn -0.000000 -0.382690 0.923877
vn -0.000000 -0.923877 -0.382690
vn -1.000000 0.000000 0.000000
vn 1.000000 0.000000 0.000000
usemtl pipe_None
s off
f 8/1/1 16/2/1 15/3/1 7/4/1
f 6/5/2 14/6/2 13/7/2 5/8/2
f 4/9/3 12/10/3 11/11/3 3/12/3
f 2/13/4 10/14/4 9/15/4 1/16/4
f 1/16/5 9/15/5 16/17/5 8/18/5
f 7/4/6 15/3/6 14/19/6 6/20/6
f 5/8/7 13/7/7 12/21/7 4/22/7
f 3/12/8 11/11/8 10/23/8 2/24/8
f 16/25/9 9/26/9 10/27/9
f 15/28/9 16/25/9 10/27/9
f 15/28/9 10/27/9 11/29/9
f 11/29/9 13/30/9 15/28/9
f 12/31/9 13/30/9 11/29/9
f 13/30/9 14/32/9 15/28/9
f 8/33/10 2/34/10 1/35/10
f 7/36/10 2/34/10 8/33/10
f 7/36/10 3/37/10 2/34/10
f 6/38/10 3/37/10 7/36/10
f 6/38/10 4/39/10 3/37/10
f 5/40/10 4/39/10 6/38/10
g s1_pipebend
v 0.749999 0.500000 0.030000
v 0.905562 0.500000 0.094436
v 0.969999 0.500000 0.250000
v 0.905562 0.500000 0.405563
v 0.749999 0.500000 0.470000
v 0.594435 0.500000 0.405563
v 0.529999 0.500000 0.250000
v 0.594435 0.500000 0.094436
v 0.749999 0.470000 0.030000
v 0.905562 0.470000 0.094436
v 0.969999 0.470000 0.250000
v 0.905562 0.470000 0.405563
v 0.749999 0.470000 0.470000
v 0.594435 0.470000 0.405563
v 0.529999 0.470000 0.250000
v 0.594435 0.470000 0.094436
v 0.529999 0.250000 0.030000
v 0.529999 0.094437 0.094436
v 0.529999 0.250000 0.470000
v 0.529999 0.405564 0.405563
v 0.529999 0.405564 0.094436
v 0.499999 0.250000 0.030000
v 0.499999 0.094436 0.094436
v 0.499999 0.030000 0.250000
v 0.499999 0.094437 0.405563
v 0.499999 0.250000 0.470000
v 0.499999 0.405564 0.405563
v 0.499999 0.470000 0.250000
v 0.499999 0.405564 0.094436
v 0.529999 0.030000 0.250000
v 0.529999 0.094437 0.405563
v 0.499999 0.250000 0.069164
v 0.499999 0.122130 0.122130
v 0.499999 0.069164 0.250000
v 0.499999 0.122130 0.377870
v 0.499999 0.250000 0.430835
v 0.499999 0.377870 0.377870
v 0.499999 0.430836 0.250000
v 0.499999 0.377870 0.122130
v 0.529999 0.250000 0.069164
v 0.529999 0.122130 0.122130
v 0.529999 0.069164 0.250000
v 0.529999 0.122130 0.377870
v 0.529999 0.250000 0.430835
v 0.529999 0.377870 0.377870
v 0.529999 0.430836 0.250000
v 0.529999 0.377870 0.122130
v 0.749999 0.500000 0.057658
v 0.886005 0.500000 0.113994
v 0.942341 0.500000 0.250000
v 0.886005 0.500000 0.386006
v 0.749999 0.500000 0.442341
v 0.613993 0.500000 0.386006
v 0.557657 0.500000 0.250000
v 0.613993 0.500000 0.113994
v 0.749999 0.470000 0.057658
v 0.886005 0.470000 0.113994
v 0.942341 0.470000 0.250000
v 0.886005 0.470000 0.386006
v 0.749999 0.470000 0.442341
v 0.613993 0.470000 0.386006
v 0.557657 0.470000 0.250000
v 0.613993 0.470000 0.113994
v 0.742737 0.413935 0.030000
v 0.893000 0.373673 0.094436
v 0.955241 0.356995 0.250000
v 0.893000 0.373673 0.405563
v 0.742737 0.413935 0.470000
v 0.592474 0.454198 0.405563
v 0.530234 0.470875 0.250000
v 0.592474 0.454198 0.094436
v 0.720978 0.360785 0.030000
v 0.855700 0.283003 0.094436
v 0.911503 0.250785 0.250000
v 0.855700 0.283003 0.405563
v 0.720978 0.360785 0.470000
v 0.586256 0.438567 0.405563
v 0.530452 0.470785 0.250000
v 0.586256 0.438567 0.094436
v 0.686203 0.315077 0.030000
v 0.796203 0.205077 0.094436
v 0.841767 0.159514 0.250000
v 0.796203 0.205077 0.405563
v 0.686203 0.315077 0.470000
v 0.576203 0.425077 0.405563
v 0.530640 0.470641 0.250000
v 0.576203 0.425077 0.094436
v 0.640784 0.279928 0.030000
v 0.718566 0.145206 0.094436
v 0.750784 0.089402 0.250000
v 0.718566 0.145206 0.405563
v 0.640784 0.279928 0.470000
v 0.563002 0.414650 0.405563
v 0.530784 0.470453 0.250000
v 0.563002 0.414650 0.094436
v 0.587815 0.257731 0.030000
v 0.628077 0.107468 0.094436
v 0.644755 0.045227 0.250000
v 0.628077 0.107468 0.405563
v 0.587815 0.257731 0.470000
v 0.547552 0.407994 0.405563
v 0.530874 0.470235 0.250000
v 0.547552 0.407994 0.094436
v 0.530030 0.250235 0.030000
v 0.530030 0.094671 0.094436
v 0.530030 0.030235 0.250000
v 0.530030 0.094671 0.405563
v 0.530030 0.250235 0.470000
v 0.530030 0.405798 0.405563
v 0.530030 0.470235 0.250000
v 0.530030 0.405798 0.094436
vt 0.159965 0.174725
vt 0.490675 0.037741
vt 0.821385 0.174725
vt 0.958369 0.505435
vt 0.821385 0.836145
vt 0.022980 0.505435
vt 0.490675 0.973130
vt 0.159965 0.836145
vt 0.813777 0.183676
vt 0.945850 0.502527
vt 0.494926 0.051604
vt 0.494926 0.953451
vt 0.176075 0.183676
vt 0.813777 0.821378
vt 0.044003 0.502527
vt 0.176075 0.821378
vt 0.274775 0.199144
vt 0.254152 0.197397
vt 0.310435 0.116660
vt 0.318312 0.132710
vt 0.397839 0.127506
vt 0.409532 0.109738
vt 0.442698 0.189733
vt 0.430589 0.190582
vt 0.420111 0.237961
vt 0.427331 0.242345
vt 0.397258 0.271566
vt 0.394015 0.264672
vt 0.356047 0.271083
vt 0.355362 0.279585
vt 0.302593 0.266042
vt 0.310003 0.257047
vt 0.257919 0.046524
vt 0.296837 0.124273
vt 0.084574 0.444434
vt 0.009383 0.431234
vt 0.390643 0.139756
vt 0.324535 0.144250
vt 0.288686 0.200208
vt 0.315763 0.250382
vt 0.356786 0.264351
vt 0.391406 0.259316
vt 0.414196 0.234763
vt 0.421325 0.191916
vt 0.233030 0.461845
vt 0.282539 0.484692
vt 0.287841 0.728571
vt 0.237192 0.748722
vt 0.941349 0.745217
vt 0.891789 0.722609
vt 0.882316 0.479275
vt 0.932722 0.459325
vt 0.703267 0.308984
vt 0.725768 0.259374
vt 0.455823 0.310667
vt 0.437303 0.259373
vt 0.449060 0.942003
vt 0.470812 0.892561
vt 0.718818 0.894282
vt 0.736744 0.945685
vt 0.680671 0.362431
vt 0.476866 0.364564
vt 0.335362 0.507290
vt 0.340350 0.705597
vt 0.493150 0.838757
vt 0.698490 0.840399
vt 0.839107 0.700634
vt 0.829263 0.501988
vt 0.495909 0.404228
vt 0.376468 0.521297
vt 0.378315 0.684823
vt 0.506956 0.796229
vt 0.680235 0.800637
vt 0.798200 0.687415
vt 0.666707 0.404422
vt 0.790562 0.522629
vt 0.384899 0.152820
vt 0.332016 0.155639
vt 0.321970 0.242679
vt 0.357511 0.256471
vt 0.388128 0.253672
vt 0.407407 0.232083
vt 0.411739 0.194651
vt 0.303032 0.200243
vt 0.355772 0.308884
vt 0.288488 0.286129
vt 0.241715 0.196573
vt 0.309503 0.115003
vt 0.415558 0.098509
vt 0.467548 0.188125
vt 0.451103 0.258101
vt 0.411014 0.297240
vt 0.267852 0.310396
vt 0.227864 0.195067
vt 0.308540 0.113293
vt 0.421724 0.085658
vt 0.499536 0.183418
vt 0.484798 0.278317
vt 0.430658 0.333564
vt 0.354599 0.348450
vt 0.534166 0.303933
vt 0.459000 0.385846
vt 0.349436 0.403722
vt 0.237317 0.338752
vt 0.212823 0.192125
vt 0.307523 0.111489
vt 0.427274 0.070978
vt 0.540501 0.172615
vt 0.196840 0.187226
vt 0.306442 0.109573
vt 0.431638 0.054395
vt 0.593310 0.150483
vt 0.610418 0.336444
vt 0.501529 0.464411
vt 0.335360 0.484857
vt 0.191119 0.370725
vt 0.661589 0.107301
vt 0.738194 0.377620
vt 0.568283 0.588220
vt 0.300318 0.613076
vt 0.181498 0.180491
vt 0.305287 0.107530
vt 0.434096 0.037340
vt 0.119472 0.404022
vt 0.009288 0.416103
vt 0.167442 0.169311
vt 0.303965 0.105204
vt 0.431992 0.018984
vt 0.733636 0.018984
vt 0.990747 0.392590
vt 0.736824 0.901946
vt 0.175591 0.829135
vn -1.000000 0.000000 0.000000
vn 0.000000 1.000000 0.000000
vn -0.923877 0.000000 -0.382690
vn -0.382690 0.000000 0.923877
vn 0.923877 -0.000000 0.382690
vn 0.382690 -0.000000 -0.923877
vn -0.382690 0.000000 -0.923877
vn -0.923877 0.000000 0.382690
vn 0.382690 -0.000000 0.923877
vn 0.923877 -0.000000 -0.382690
vn 0.000000 0.382690 0.923877
vn 0.000000 -0.382690 -0.923877
vn 0.000000 0.382690 -0.923877
vn 0.000000 0.923877 -0.382690
vn 0.000000 -0.923877 0.382690
vn 0.000000 0.923877 0.382690
vn -0.000000 -0.382690 0.923877
vn 0.000000 -0.923877 -0.382690
vn 0.382300 -0.049700 -0.922701
vn -0.382397 0.049100 -0.922693
vn -0.918934 0.106304 0.379814
vn 0.382300 -0.049700 0.922701
vn 0.917258 -0.119695 -0.379883
vn -0.918934 0.106304 -0.379814
vn -0.382397 0.049100 0.922693
vn 0.917258 -0.119695 0.379883
vn -0.357099 0.145299 -0.922696
vn -0.864287 0.329795 0.379794
vn 0.356605 -0.146402 0.922713
vn 0.855397 -0.352099 -0.379899
vn -0.864287 0.329795 -0.379794
vn -0.357099 0.145299 0.922696
vn 0.855397 -0.352099 0.379899
vn 0.356605 -0.146402 -0.922713
vn 0.735108 -0.561506 0.379904
vn 0.306510 -0.233708 -0.922731
vn -0.307306 0.232705 -0.922719
vn -0.749467 0.542276 0.379783
vn 0.306510 -0.233708 0.922731
vn 0.735108 -0.561506 -0.379904
vn -0.749467 0.542276 -0.379783
vn -0.307306 0.232705 0.922719
vn -0.583578 0.717774 -0.379786
vn -0.236606 0.304307 0.922722
vn 0.564793 -0.732591 0.379895
vn 0.235604 -0.305105 -0.922714
vn -0.236606 0.304307 -0.922722
vn -0.583578 0.717774 0.379786
vn 0.235604 -0.305105 0.922714
vn 0.564793 -0.732591 -0.379895
vn 0.148602 -0.355704 0.922709
vn 0.355907 -0.853816 -0.379907
vn -0.377887 0.844371 -0.379787
vn -0.149801 0.355203 0.922708
vn 0.355907 -0.853816 0.379907
vn 0.148602 -0.355704 -0.922709
vn -0.149801 0.355203 -0.922708
vn -0.377887 0.844371 0.379787
vn -0.049201 0.382310 -0.922723
vn -0.109799 0.918490 0.379896
vn 0.049800 -0.382298 0.922696
vn 0.119804 -0.917231 -0.379913
vn -0.109799 0.918490 -0.379896
vn -0.049201 0.382310 0.922723
vn 0.119804 -0.917231 0.379913
vn 0.049800 -0.382298 -0.922696
usemtl pipebend_None
s off
f 61/41/11 62/42/11 63/43/11
f 63/43/11 56/44/11 61/41/11
f 56/44/11 57/45/11 60/46/11
f 56/44/11 60/46/11 61/41/11
f 58/47/11 59/48/11 57/45/11
f 57/45/11 59/48/11 60/46/11
f 79/49/12 78/50/12 72/51/12
f 78/50/12 76/52/12 73/53/12
f 77/54/12 76/52/12 78/50/12
f 76/52/12 74/55/12 73/53/12
f 78/50/12 73/53/12 72/51/12
f 76/52/12 75/56/12 74/55/12
usemtl pipebend_None_plain
f 24/57/13 32/58/13 31/59/13 23/60/13
f 22/61/14 30/62/14 29/63/14 21/64/14
f 20/65/15 28/66/15 27/67/15 19/68/15
f 18/69/16 26/70/16 25/71/16 17/72/16
f 17/72/17 25/71/17 32/58/17 24/57/17
f 23/60/18 31/59/18 30/62/18 22/61/18
f 21/64/19 29/63/19 28/66/19 20/65/19
f 19/73/20 27/74/20 26/75/20 18/76/20
f 23/60/12 22/61/12 69/77/12 70/78/12
f 17/72/12 24/57/12 71/79/12 64/80/12
f 18/69/12 17/72/12 64/80/12 65/81/12
f 20/65/12 19/68/12 66/82/12 67/83/12
f 22/61/12 21/64/12 68/84/12 69/77/12
f 24/57/12 23/60/12 70/78/12 71/79/12
f 36/85/21 43/86/21 42/87/21 35/88/21
f 34/89/22 39/90/22 38/91/22 33/92/22
f 33/92/23 38/91/23 45/93/23 37/94/23
f 37/94/24 45/93/24 44/95/24 31/96/24
f 47/97/25 41/98/25 40/99/25 46/100/25
f 31/96/26 44/95/26 43/86/26 36/85/26
f 35/88/27 42/87/27 41/98/27 47/97/27
f 46/100/28 40/99/28 39/90/28 34/89/28
f 44/95/11 45/93/11 55/101/11 54/102/11
f 42/87/11 43/86/11 53/103/11 52/104/11
f 40/99/11 41/98/11 51/105/11 50/106/11
f 38/91/11 39/90/11 49/107/11 48/108/11
f 45/93/11 38/91/11 48/108/11 55/101/11
f 43/86/11 44/95/11 54/102/11 53/103/11
f 41/98/11 42/87/11 52/104/11 51/105/11
f 39/90/11 40/99/11 50/106/11 49/107/11
f 53/103/28 54/102/28 62/109/28 61/110/28
f 51/105/23 52/104/23 60/111/23 59/112/23
f 49/107/26 50/106/26 58/113/26 57/114/26
f 54/102/25 55/101/25 63/115/25 62/109/25
f 52/104/22 53/103/22 61/110/22 60/111/22
f 50/106/24 51/105/24 59/112/24 58/113/24
f 48/108/21 49/107/21 57/114/21 56/116/21
f 55/101/27 48/108/27 56/116/27 63/115/27
f 21/64/12 20/65/12 67/83/12 68/84/12
f 19/68/12 18/69/12 65/81/12 66/82/12
f 70/78/20 69/77/20 77/117/20 78/118/20
f 65/81/14 64/80/14 72/119/14 73/120/14
f 67/83/13 66/82/13 74/121/13 75/122/13
f 69/77/16 68/84/16 76/123/16 77/117/16
f 71/79/15 70/78/15 78/118/15 79/124/15
f 66/82/18 65/81/18 73/120/18 74/121/18
f 68/84/17 67/83/17 75/122/17 76/123/17
f 64/80/19 71/79/19 79/124/19 72/119/19
f 25/71/29 26/70/29 81/125/29 80/126/29
f 32/58/30 25/71/30 80/126/30 87/127/30
f 30/62/31 31/59/31 86/128/31 85/129/31
f 28/66/32 29/63/32 84/130/32 83/131/32
f 26/70/33 27/67/33 82/132/33 81/125/33
f 31/59/34 32/58/34 87/127/34 86/128/34
f 29/63/35 30/62/35 85/129/35 84/130/35
f 27/67/36 28/66/36 83/131/36 82/132/36
f 87/127/37 80/126/37 88/133/37 95/134/37
f 85/129/38 86/128/38 94/135/38 93/136/38
f 83/131/39 84/130/39 92/137/39 91/138/39
f 81/125/40 82/132/40 90/139/40 89/140/40
f 86/128/41 87/127/41 95/134/41 94/135/41
f 84/130/42 85/129/42 93/136/42 92/137/42
f 82/132/43 83/131/43 91/138/43 90/139/43
f 80/126/44 81/125/44 89/140/44 88/133/44
f 90/139/45 91/138/45 99/141/45 98/142/45
f 88/133/46 89/140/46 97/143/46 96/144/46
f 95/134/47 88/133/47 96/144/47 103/145/47
f 93/136/48 94/135/48 102/146/48 101/147/48
f 91/138/49 92/137/49 100/148/49 99/141/49
f 89/140/50 90/139/50 98/142/50 97/143/50
f 94/135/51 95/134/51 103/145/51 102/146/51
f 92/137/52 93/136/52 101/147/52 100/148/52
f 102/146/53 103/145/53 111/149/53 110/150/53
f 100/148/54 101/147/54 109/151/54 108/152/54
f 98/142/55 99/141/55 107/153/55 106/154/55
f 96/144/56 97/143/56 105/155/56 104/156/56
f 103/145/57 96/144/57 104/156/57 111/149/57
f 101/147/58 102/146/58 110/150/58 109/151/58
f 99/141/59 100/148/59 108/152/59 107/153/59
f 97/143/60 98/142/60 106/154/60 105/155/60
f 107/153/61 108/152/61 116/157/61 115/158/61
f 105/155/62 106/154/62 114/159/62 113/160/62
f 110/150/63 111/149/63 119/161/63 118/162/63
f 108/152/64 109/151/64 117/163/64 116/157/64
f 106/154/65 107/153/65 115/158/65 114/159/65
f 104/156/66 105/155/66 113/160/66 112/164/66
f 111/149/67 104/156/67 112/164/67 119/161/67
f 109/151/68 110/150/68 118/162/68 117/163/68
f 119/161/69 112/164/69 120/165/69 127/166/69
f 117/163/70 118/162/70 126/167/70 125/168/70
f 115/158/71 116/157/71 124/169/71 123/170/71
f 113/160/72 114/159/72 122/171/72 121/172/72
f 118/162/73 119/161/73 127/166/73 126/167/73
f 116/157/74 117/163/74 125/168/74 124/169/74
f 114/159/75 115/158/75 123/170/75 122/171/75
f 112/164/76 113/160/76 121/172/76 120/165/76
g s2_pipebend
v 0.250001 0.530000 0.500000
v 0.094438 0.594436 0.500000
v 0.030001 0.750000 0.500000
v 0.094438 0.905563 0.500000
v 0.250001 0.970000 0.500000
v 0.405565 0.905563 0.500000
v 0.470001 0.750000 0.500000
v 0.405565 0.594436 0.500000
v 0.250001 0.530000 0.470000
v 0.094438 0.594436 0.470000
v 0.030001 0.750000 0.470000
v 0.094438 0.905563 0.470000
v 0.250001 0.970000 0.470000
v 0.405565 0.905563 0.470000
v 0.470001 0.750000 0.470000
v 0.405565 0.594436 0.470000
v 0.470001 0.530000 0.250000
v 0.470001 0.594436 0.094437
v 0.470001 0.970000 0.250000
v 0.470001 0.905563 0.405564
v 0.470001 0.594436 0.405564
v 0.500001 0.530000 0.250000
v 0.500001 0.594436 0.094436
v 0.500001 0.750000 0.030000
v 0.500001 0.905563 0.094437
v 0.500001 0.970000 0.250000
v 0.500001 0.905563 0.405564
v 0.500001 0.750000 0.470000
v 0.500001 0.594436 0.405564
v 0.470001 0.750000 0.030000
v 0.470001 0.905563 0.094437
v 0.500001 0.569164 0.250000
v 0.500001 0.622130 0.122130
v 0.500001 0.750000 0.069164
v 0.500001 0.877870 0.122130
v 0.500001 0.930835 0.250000
v 0.500001 0.877870 0.377870
v 0.500001 0.750000 0.430836
v 0.500001 0.622130 0.377870
v 0.470001 0.569164 0.250000
v 0.470001 0.622130 0.122130
v 0.470001 0.750000 0.069164
v 0.470001 0.877870 0.122130
v 0.470001 0.930835 0.250000
v 0.470001 0.877870 0.377870
v 0.470001 0.750000 0.430836
v 0.470001 0.622130 0.377870
v 0.250001 0.557658 0.500000
v 0.113995 0.613994 0.500000
v 0.057659 0.750000 0.500000
v 0.113995 0.886006 0.500000
v 0.250001 0.942341 0.500000
v 0.386007 0.886006 0.500000
v 0.442343 0.750000 0.500000
v 0.386007 0.613994 0.500000
v 0.250001 0.557658 0.470000
v 0.113995 0.613994 0.470000
v 0.057659 0.750000 0.470000
v 0.113995 0.886006 0.470000
v 0.250001 0.942341 0.470000
v 0.386007 0.886006 0.470000
v 0.442343 0.750000 0.470000
v 0.386007 0.613994 0.470000
v 0.257263 0.530000 0.413935
v 0.107000 0.594436 0.373673
v 0.044759 0.750000 0.356995
v 0.107000 0.905563 0.373673
v 0.257263 0.970000 0.413935
v 0.407526 0.905563 0.454198
v 0.469766 0.750000 0.470875
v 0.407526 0.594436 0.454198
v 0.279022 0.530000 0.360785
v 0.144300 0.594436 0.283003
v 0.088497 0.750000 0.250785
v 0.144300 0.905563 0.283003
v 0.279022 0.970000 0.360785
v 0.413744 0.905563 0.438567
v 0.469548 0.750000 0.470785
v 0.413744 0.594436 0.438567
v 0.313797 0.530000 0.315077
v 0.203797 0.594436 0.205077
v 0.158233 0.750000 0.159514
v 0.203797 0.905563 0.205077
v 0.313797 0.970000 0.315077
v 0.423797 0.905563 0.425077
v 0.469360 0.750000 0.470641
v 0.423797 0.594436 0.425077
v 0.359216 0.530000 0.279928
v 0.281434 0.594436 0.145206
v 0.249216 0.750000 0.089402
v 0.281434 0.905563 0.145206
v 0.359216 0.970000 0.279928
v 0.436998 0.905563 0.414650
v 0.469216 0.750000 0.470453
v 0.436998 0.594436 0.414650
v 0.412185 0.530000 0.257731
v 0.371923 0.594436 0.107468
v 0.355245 0.750000 0.045227
v 0.371923 0.905563 0.107468
v 0.412185 0.970000 0.257731
v 0.452448 0.905563 0.407994
v 0.469126 0.750000 0.470235
v 0.452448 0.594436 0.407994
v 0.469970 0.530000 0.250235
v 0.469970 0.594436 0.094671
v 0.469970 0.750000 0.030235
v 0.469970 0.905563 0.094671
v 0.469970 0.970000 0.250235
v 0.469970 0.905563 0.405798
v 0.469970 0.750000 0.470235
v 0.469970 0.594436 0.405798
vt 0.159965 0.174725
vt 0.490675 0.037741
vt 0.821385 0.174725
vt 0.958369 0.505435
vt 0.821385 0.836145
vt 0.022980 0.505435
vt 0.490675 0.973130
vt 0.159965 0.836145
vt 0.813777 0.183676
vt 0.945850 0.502527
vt 0.494926 0.051604
vt 0.494926 0.953451
vt 0.176075 0.183676
vt 0.813777 0.821378
vt 0.044003 0.502527
vt 0.176075 0.821378
vt 0.274775 0.199144
vt 0.254152 0.197397
vt 0.310435 0.116660
vt 0.318312 0.132710
vt 0.397839 0.127506
vt 0.409532 0.109738
vt 0.442698 0.189733
vt 0.430589 0.190582
vt 0.420111 0.237961
vt 0.427331 0.242345
vt 0.397258 0.271566
vt 0.394015 0.264672
vt 0.356047 0.271083
vt 0.355362 0.279585
vt 0.302593 0.266042
vt 0.310003 0.257047
vt 0.257919 0.046524
vt 0.296837 0.124273
vt 0.084574 0.444434
vt 0.009383 0.431234
vt 0.390643 0.139756
vt 0.324535 0.144250
vt 0.288686 0.200208
vt 0.315763 0.250382
vt 0.356786 0.264351
vt 0.391406 0.259316
vt 0.414196 0.234763
vt 0.421325 0.191916
vt 0.233030 0.461845
vt 0.282539 0.484692
vt 0.287841 0.728571
vt 0.237192 0.748722
vt 0.941349 0.745217
vt 0.891789 0.722609
vt 0.882316 0.479275
vt 0.932722 0.459325
vt 0.703267 0.308984
vt 0.725768 0.259374
vt 0.455823 0.310667
vt 0.437303 0.259373
vt 0.449060 0.942003
vt 0.470812 0.892561
vt 0.718818 0.894282
vt 0.736744 0.945685
vt 0.680671 0.362431
vt 0.476866 0.364564
vt 0.335362 0.507290
vt 0.340350 0.705597
vt 0.493150 0.838757
vt 0.698490 0.840399
vt 0.839107 0.700634
vt 0.829263 0.501988
vt 0.495909 0.404228
vt 0.376468 0.521297
vt 0.378315 0.684823
vt 0.506956 0.796229
vt 0.680235 0.800637
vt 0.798200 0.687415
vt 0.666707 0.404422
vt 0.790562 0.522629
vt 0.384899 0.152820
vt 0.332016 0.155639
vt 0.321970 0.242679
vt 0.357511 0.256471
vt 0.388128 0.253672
vt 0.407407 0.232083
vt 0.411739 0.194651
vt 0.303032 0.200243
vt 0.355772 0.308884
vt 0.288488 0.286129
vt 0.241715 0.196573
vt 0.309503 0.115003
vt 0.415558 0.098509
vt 0.467548 0.188125
vt 0.451103 0.258101
vt 0.411014 0.297240
vt 0.267852 0.310396
vt 0.227864 0.195067
vt 0.308540 0.113293
vt 0.421724 0.085658
vt 0.499536 0.183418
vt 0.484798 0.278317
vt 0.430658 0.333564
vt 0.354599 0.348450
vt 0.534166 0.303933
vt 0.459000 0.385846
vt 0.349436 0.403722
vt 0.237317 0.338752
vt 0.212823 0.192125
vt 0.307523 0.111489
vt 0.427274 0.070978
vt 0.540501 0.172615
vt 0.196840 0.187226
vt 0.306442 0.109573
vt 0.431638 0.054395
vt 0.593310 0.150483
vt 0.610418 0.336444
vt 0.501529 0.464411
vt 0.335360 0.484857
vt 0.191119 0.370725
vt 0.661589 0.107301
vt 0.738194 0.377620
vt 0.568283 0.588220
vt 0.300318 0.613076
vt 0.181498 0.180491
vt 0.305287 0.107530
vt 0.434096 0.037340
vt 0.119472 0.404022
vt 0.009288 0.416103
vt 0.167442 0.169311
vt 0.303965 0.105204
vt 0.431992 0.018984
vt 0.733636 0.018984
vt 0.990747 0.392590
vt 0.736824 0.901946
vt 0.175591 0.829135
vn 1.000000 0.000000 0.000000
vn 0.000000 0.000000 1.000000
vn 0.923877 -0.382690 -0.000000
vn 0.382690 0.923877 0.000000
vn -0.923877 0.382690 0.000000
vn -0.382690 -0.923877 -0.000000
vn 0.382690 -0.923877 -0.000000
vn 0.923877 0.382690 0.000000
vn -0.382690 0.923877 0.000000
vn -0.923877 -0.382690 -0.000000
vn 0.000000 0.923877 0.382690
vn -0.000000 -0.923877 -0.382690
vn -0.000000 -0.923877 0.382690
vn -0.000000 -0.382690 0.923877
vn -0.000000 0.382690 -0.923877
vn 0.000000 0.382690 0.923877
vn 0.000000 0.923877 -0.382690
vn -0.000000 -0.382690 -0.923877
vn -0.382300 -0.922701 -0.049700
vn 0.382397 -0.922693 0.049100
vn 0.918934 0.379814 0.106304
vn -0.382300 0.922701 -0.049700
vn -0.917258 -0.379883 -0.119695
vn 0.918934 -0.379814 0.106304
vn 0.382397 0.922693 0.049100
vn -0.917258 0.379883 -0.119695
vn 0.357099 -0.922696 0.145299
vn 0.864287 0.379794 0.329795
vn -0.356605 0.922713 -0.146402
vn -0.855397 -0.379899 -0.352099
vn 0.864287 -0.379794 0.329795
vn 0.357099 0.922696 0.145299
vn -0.855397 0.379899 -0.352099
vn -0.356605 -0.922713 -0.146402
vn -0.735108 0.379904 -0.561506
vn -0.306510 -0.922731 -0.233708
vn 0.307306 -0.922719 0.232705
vn 0.749467 0.379783 0.542276
vn -0.306510 0.922731 -0.233708
vn -0.735108 -0.379904 -0.561506
vn 0.749467 -0.379783 0.542276
vn 0.307306 0.922719 0.232705
vn 0.583578 -0.379786 0.717774
vn 0.236606 0.922722 0.304307
vn -0.564793 0.379895 -0.732591
vn -0.235604 -0.922714 -0.305105
vn 0.236606 -0.922722 0.304307
vn 0.583578 0.379786 0.717774
vn -0.235604 0.922714 -0.305105
vn -0.564793 -0.379895 -0.732591
vn -0.148602 0.922709 -0.355704
vn -0.355907 -0.379907 -0.853816
vn 0.377887 -0.379787 0.844371
vn 0.149801 0.922708 0.355203
vn -0.355907 0.379907 -0.853816
vn -0.148602 -0.922709 -0.355704
vn 0.149801 -0.922708 0.355203
vn 0.377887 0.379787 0.844371
vn 0.049201 -0.922723 0.382310
vn 0.109799 0.379896 0.918490
vn -0.049800 0.922696 -0.382298
vn -0.119804 -0.379913 -0.917231
vn 0.109799 -0.379896 0.918490
vn 0.049201 0.922723 0.382310
vn -0.119804 0.379913 -0.917231
vn -0.049800 -0.922696 -0.382298
usemtl pipebend_None
s off
f 172/173/77 173/174/77 174/175/77
f 174/175/77 167/176/77 172/173/77
f 167/176/77 168/177/77 171/178/77
f 167/176/77 171/178/77 172/173/77
f 169/179/77 170/180/77 168/177/77
f 168/177/77 170/180/77 171/178/77
f 190/181/78 189/182/78 183/183/78
f 189/182/78 187/184/78 184/185/78
f 188/186/78 187/184/78 189/182/78
f 187/184/78 185/187/78 184/185/78
f 189/182/78 184/185/78 183/183/78
f 187/184/78 186/188/78 185/187/78
usemtl pipebend_None_plain
f 135/189/79 143/190/79 142/191/79 134/192/79
f 133/193/80 141/194/80 140/195/80 132/196/80
f 131/197/81 139/198/81 138/199/81 130/200/81
f 129/201/82 137/202/82 136/203/82 128/204/82
f 128/204/83 136/203/83 143/190/83 135/189/83
f 134/192/84 142/191/84 141/194/84 133/193/84
f 132/196/85 140/195/85 139/198/85 131/197/85
f 130/205/86 138/206/86 137/207/86 129/208/86
f 134/192/78 133/193/78 180/209/78 181/210/78
f 128/204/78 135/189/78 182/211/78 175/212/78
f 129/201/78 128/204/78 175/212/78 176/213/78
f 131/197/78 130/200/78 177/214/78 178/215/78
f 133/193/78 132/196/78 179/216/78 180/209/78
f 135/189/78 134/192/78 181/210/78 182/211/78
f 147/217/87 154/218/87 153/219/87 146/220/87
f 145/221/88 150/222/88 149/223/88 144/224/88
f 144/224/89 149/223/89 156/225/89 148/226/89
f 148/226/90 156/225/90 155/227/90 142/228/90
f 158/229/91 152/230/91 151/231/91 157/232/91
f 142/228/92 155/227/92 154/218/92 147/217/92
f 146/220/93 153/219/93 152/230/93 158/229/93
f 157/232/94 151/231/94 150/222/94 145/221/94
f 155/227/77 156/225/77 166/233/77 165/234/77
f 153/219/77 154/218/77 164/235/77 163/236/77
f 151/231/77 152/230/77 162/237/77 161/238/77
f 149/223/77 150/222/77 160/239/77 159/240/77
f 156/225/77 149/223/77 159/240/77 166/233/77
f 154/218/77 155/227/77 165/234/77 164/235/77
f 152/230/77 153/219/77 163/236/77 162/237/77
f 150/222/77 151/231/77 161/238/77 160/239/77
f 164/235/94 165/234/94 173/241/94 172/242/94
f 162/237/89 163/236/89 171/243/89 170/244/89
f 160/239/92 161/238/92 169/245/92 168/246/92
f 165/234/91 166/233/91 174/247/91 173/241/91
f 163/236/88 164/235/88 172/242/88 171/243/88
f 161/238/90 162/237/90 170/244/90 169/245/90
f 159/240/87 160/239/87 168/246/87 167/248/87
f 166/233/93 159/240/93 167/248/93 174/247/93
f 132/196/78 131/197/78 178/215/78 179/216/78
f 130/200/78 129/201/78 176/213/78 177/214/78
f 181/210/86 180/209/86 188/249/86 189/250/86
f 176/213/80 175/212/80 183/251/80 184/252/80
f 178/215/79 177/214/79 185/253/79 186/254/79
f 180/209/82 179/216/82 187/255/82 188/249/82
f 182/211/81 181/210/81 189/250/81 190/256/81
f 177/214/84 176/213/84 184/252/84 185/253/84
f 179/216/83 178/215/83 186/254/83 187/255/83
f 175/212/85 182/211/85 190/256/85 183/251/85
f 136/203/95 137/202/95 192/257/95 191/258/95
f 143/190/96 136/203/96 191/258/96 198/259/96
f 141/194/97 142/191/97 197/260/97 196/261/97
f 139/198/98 140/195/98 195/262/98 194/263/98
f 137/202/99 138/199/99 193/264/99 192/257/99
f 142/191/100 143/190/100 198/259/100 197/260/100
f 140/195/101 141/194/101 196/261/101 195/262/101
f 138/199/102 139/198/102 194/263/102 193/264/102
f 198/259/103 191/258/103 199/265/103 206/266/103
f 196/261/104 197/260/104 205/267/104 204/268/104
f 194/263/105 195/262/105 203/269/105 202/270/105
f 192/257/106 193/264/106 201/271/106 200/272/106
f 197/260/107 198/259/107 206/266/107 205/267/107
f 195/262/108 196/261/108 204/268/108 203/269/108
f 193/264/109 194/263/109 202/270/109 201/271/109
f 191/258/110 192/257/110 200/272/110 199/265/110
f 201/271/111 202/270/111 210/273/111 209/274/111
f 199/265/112 200/272/112 208/275/112 207/276/112
f 206/266/113 199/265/113 207/276/113 214/277/113
f 204/268/114 205/267/114 213/278/114 212/279/114
f 202/270/115 203/269/115 211/280/115 210/273/115
f 200/272/116 201/271/116 209/274/116 208/275/116
f 205/267/117 206/266/117 214/277/117 213/278/117
f 203/269/118 204/268/118 212/279/118 211/280/118
f 213/278/119 214/277/119 222/281/119 221/282/119
f 211/280/120 212/279/120 220/283/120 219/284/120
f 209/274/121 210/273/121 218/285/121 217/286/121
f 207/276/122 208/275/122 216/287/122 215/288/122
f 214/277/123 207/276/123 215/288/123 222/281/123
f 212/279/124 213/278/124 221/282/124 220/283/124
f 210/273/125 211/280/125 219/284/125 218/285/125
f 208/275/126 209/274/126 217/286/126 216/287/126
f 218/285/127 219/284/127 227/289/127 226/290/127
f 216/287/128 217/286/128 225/291/128 224/292/128
f 221/282/129 222/281/129 230/293/129 229/294/129
f 219/284/130 220/283/130 228/295/130 227/289/130
f 217/286/131 218/285/131 226/290/131 225/291/131
f 215/288/132 216/287/132 224/292/132 223/296/132
f 222/281/133 215/288/133 223/296/133 230/293/133
f 220/283/134 221/282/134 229/294/134 228/295/134
f 230/293/135 223/296/135 231/297/135 238/298/135
f 228/295/136 229/294/136 237/299/136 236/300/136
f 226/290/137 227/289/137 235/301/137 234/302/137
f 224/292/138 225/291/138 233/303/138 232/304/138
f 229/294/139 230/293/139 238/298/139 237/299/139
f 227/289/140 228/295/140 236/300/140 235/301/140
f 225/291/141 226/290/141 234/302/141 233/303/141
f 223/296/142 224/292/142 232/304/142 231/297/142
g s3_pipeblock
v 0.500000 0.500000 0.000000
v 1.000000 0.500000 0.000000
v 1.000000 0.500000 0.500000
v 0.500000 0.500000 0.500000
v 0.500000 1.000000 0.000000
v 1.000000 1.000000 0.000000
v 1.000000 1.000000 0.500000
v 0.500000 1.000000 0.500000
v 0.500000 0.500000 0.000000
v 0.500000 0.500000 0.500000
v 0.500000 1.000000 0.000003
v 0.500000 1.000000 0.500000
v 1.000000 0.500000 0.000000
v 1.000000 0.500000 0.500000
v 1.000000 1.000000 0.000003
v 1.000000 1.000000 0.500000
v 0.500002 1.000000 0.499997
v 0.999999 0.500000 0.499997
v 0.499999 0.500000 0.499997
v 0.999999 1.000000 0.499997
v 0.499999 0.500000 -0.000003
v 0.999999 0.500000 -0.000003
v 0.500002 1.000000 -0.000003
v 0.999999 1.000000 -0.000003
vt 0.000000 0.000000
vt 1.000000 0.000000
vt 1.000000 1.000000
vt 0.000000 1.000000
vt 0.000000 0.000000
vt 1.000000 0.000000
vt 1.000000 1.000000
vt 0.000000 1.000000
vt 0.546543 0.002159
vt 0.993230 0.002159
vt 0.993230 0.502159
vt 0.546543 0.502159
vt 0.000000 0.500000
vt 0.557619 0.500000
vt 0.557619 1.000000
vt 0.000000 1.000000
vt 0.551001 0.493089
vt 0.551001 0.005817
vt 0.994183 0.005818
vt 0.994182 0.493089
vt 0.564936 0.000000
vt 0.997554 0.000000
vt 0.997554 0.500000
vt 0.564936 0.500000
vn 0.000000 -1.000000 0.000000
vn 0.000000 1.000000 0.000000
vn -1.000000 0.000000 -0.000000
vn 1.000000 0.000000 0.000000
vn -0.000000 0.000000 1.000000
vn 0.000000 0.000000 -1.000000
usemtl pipeblock_None
s off
f 239/305/143 240/306/143 241/307/143 242/308/143
f 243/309/144 246/310/144 245/311/144 244/312/144
usemtl pipeblock_None_grate
f 249/313/145 247/314/145 248/315/145 250/316/145
f 253/317/146 254/318/146 252/319/146 251/320/146
f 255/321/147 257/322/147 256/323/147 258/324/147
f 261/325/148 262/326/148 260/327/148 259/328/148
g s4_pipebend
v 0.250001 0.000000 0.530000
v 0.094438 0.000000 0.594436
v 0.030001 0.000000 0.750000
v 0.094438 0.000000 0.905563
v 0.250001 0.000000 0.970000
v 0.405565 0.000000 0.905563
v 0.470001 0.000000 0.750000
v 0.405565 0.000000 0.594436
v 0.250001 0.030000 0.530000
v 0.094438 0.030000 0.594436
v 0.030001 0.030000 0.750000
v 0.094438 0.030000 0.905563
v 0.250001 0.030000 0.970000
v 0.405565 0.030000 0.905563
v 0.470001 0.030000 0.750000
v 0.405565 0.030000 0.594436
v 0.470001 0.250000 0.530000
v 0.470001 0.405563 0.594436
v 0.470001 0.250000 0.970000
v 0.470001 0.094436 0.905563
v 0.470001 0.094436 0.594436
v 0.500001 0.250000 0.530000
v 0.500001 0.405564 0.594436
v 0.500001 0.470000 0.750000
v 0.500001 0.405563 0.905563
v 0.500001 0.250000 0.970000
v 0.500001 0.094436 0.905563
v 0.500001 0.030000 0.750000
v 0.500001 0.094436 0.594436
v 0.470001 0.470000 0.750000
v 0.470001 0.405563 0.905563
v 0.500001 0.250000 0.569164
v 0.500001 0.377870 0.622130
v 0.500001 0.430836 0.750000
v 0.500001 0.377870 0.877870
v 0.500001 0.250000 0.930835
v 0.500001 0.122130 0.877870
v 0.500001 0.069164 0.750000
v 0.500001 0.122130 0.622130
v 0.470001 0.250000 0.569164
v 0.470001 0.377870 0.622130
v 0.470001 0.430836 0.750000
v 0.470001 0.377870 0.877870
v 0.470001 0.250000 0.930835
v 0.470001 0.122130 0.877870
v 0.470001 0.069164 0.750000
v 0.470001 0.122130 0.622130
v 0.250001 0.000000 0.557658
v 0.113995 0.000000 0.613994
v 0.057659 0.000000 0.750000
v 0.113995 0.000000 0.886006
v 0.250001 0.000000 0.942341
v 0.386007 0.000000 0.886006
v 0.442343 0.000000 0.750000
v 0.386007 0.000000 0.613994
v 0.250001 0.030000 0.557658
v 0.113995 0.030000 0.613994
v 0.057659 0.030000 0.750000
v 0.113995 0.030000 0.886006
v 0.250001 0.030000 0.942341
v 0.386007 0.030000 0.886006
v 0.442343 0.030000 0.750000
v 0.386007 0.030000 0.613994
v 0.257263 0.086065 0.530000
v 0.107000 0.126327 0.594436
v 0.044759 0.143005 0.750000
v 0.107000 0.126327 0.905563
v 0.257263 0.086065 0.970000
v 0.407526 0.045802 0.905563
v 0.469766 0.029125 0.750000
v 0.407526 0.045802 0.594436
v 0.279022 0.139215 0.530000
v 0.144300 0.216997 0.594436
v 0.088497 0.249215 0.750000
v 0.144300 0.216997 0.905563
v 0.279022 0.139215 0.970000
v 0.413744 0.061433 0.905563
v 0.469548 0.029215 0.750000
v 0.413744 0.061433 0.594436
v 0.313797 0.184923 0.530000
v 0.203797 0.294923 0.594436
v 0.158233 0.340486 0.750000
v 0.203797 0.294923 0.905563
v 0.313797 0.184923 0.970000
v 0.423797 0.074923 0.905563
v 0.469360 0.029359 0.750000
v 0.423797 0.074923 0.594436
v 0.359216 0.220072 0.530000
v 0.281434 0.354794 0.594436
v 0.249216 0.410598 0.750000
v 0.281434 0.354794 0.905563
v 0.359216 0.220072 0.970000
v 0.436998 0.085350 0.905563
v 0.469216 0.029547 0.750000
v 0.436998 0.085350 0.594436
v 0.412185 0.242269 0.530000
v 0.371923 0.392532 0.594436
v 0.355245 0.454773 0.750000
v 0.371923 0.392532 0.905563
v 0.412185 0.242269 0.970000
v 0.452448 0.092006 0.905563
v 0.469126 0.029765 0.750000
v 0.452448 0.092006 0.594436
v 0.469970 0.249765 0.530000
v 0.469970 0.405329 0.594436
v 0.469970 0.469765 0.750000
v 0.469970 0.405329 0.905563
v 0.469970 0.249765 0.970000
v 0.469970 0.094202 0.905563
v 0.469970 0.029765 0.750000
v 0.469970 0.094202 0.594436
vt 0.159965 0.174725
vt 0.490675 0.037741
vt 0.821385 0.174725
vt 0.958369 0.505435
vt 0.821385 0.836145
vt 0.022980 0.505435
vt 0.490675 0.973130
vt 0.159965 0.836145
vt 0.813777 0.183676
vt 0.945850 0.502527
vt 0.494926 0.051604
vt 0.494926 0.953451
vt 0.176075 0.183676
vt 0.813777 0.821378
vt 0.044003 0.502527
vt 0.176075 0.821378
vt 0.274775 0.199144
vt 0.254152 0.197397
vt 0.310435 0.116660
vt 0.318312 0.132710
vt 0.397839 0.127506
vt 0.409532 0.109738
vt 0.442698 0.189733
vt 0.430589 0.190582
vt 0.420111 0.237961
vt 0.427331 0.242345
vt 0.397258 0.271566
vt 0.394015 0.264672
vt 0.356047 0.271083
vt 0.355362 0.279585
vt 0.302593 0.266042
vt 0.310003 0.257047
vt 0.257919 0.046524
vt 0.296837 0.124273
vt 0.084574 0.444434
vt 0.009383 0.431234
vt 0.390643 0.139756
vt 0.324535 0.144250
vt 0.288686 0.200208
vt 0.315763 0.250382
vt 0.356786 0.264351
vt 0.391406 0.259316
vt 0.414196 0.234763
vt 0.421325 0.191916
vt 0.233030 0.461845
vt 0.282539 0.484692
vt 0.287841 0.728571
vt 0.237192 0.748722
vt 0.941349 0.745217
vt 0.891789 0.722609
vt 0.882316 0.479275
vt 0.932722 0.459325
vt 0.703267 0.308984
vt 0.725768 0.259374
vt 0.455823 0.310667
vt 0.437303 0.259373
vt 0.449060 0.942003
vt 0.470812 0.892561
vt 0.718818 0.894282
vt 0.736744 0.945685
vt 0.680671 0.362431
vt 0.476866 0.364564
vt 0.335362 0.507290
vt 0.340350 0.705597
vt 0.493150 0.838757
vt 0.698490 0.840399
vt 0.839107 0.700634
vt 0.829263 0.501988
vt 0.495909 0.404228
vt 0.376468 0.521297
vt 0.378315 0.684823
vt 0.506956 0.796229
vt 0.680235 0.800637
vt 0.798200 0.687415
vt 0.666707 0.404422
vt 0.790562 0.522629
vt 0.384899 0.152820
vt 0.332016 0.155639
vt 0.321970 0.242679
vt 0.357511 0.256471
vt 0.388128 0.253672
vt 0.407407 0.232083
vt 0.411739 0.194651
vt 0.303032 0.200243
vt 0.355772 0.308884
vt 0.288488 0.286129
vt 0.241715 0.196573
vt 0.309503 0.115003
vt 0.415558 0.098509
vt 0.467548 0.188125
vt 0.451103 0.258101
vt 0.411014 0.297240
vt 0.267852 0.310396
vt 0.227864 0.195067
vt 0.308540 0.113293
vt 0.421724 0.085658
vt 0.499536 0.183418
vt 0.484798 0.278317
vt 0.430658 0.333564
vt 0.354599 0.348450
vt 0.534166 0.303933
vt 0.459000 0.385846
vt 0.349436 0.403722
vt 0.237317 0.338752
vt 0.212823 0.192125
vt 0.307523 0.111489
vt 0.427274 0.070978
vt 0.540501 0.172615
vt 0.196840 0.187226
vt 0.306442 0.109573
vt 0.431638 0.054395
vt 0.593310 0.150483
vt 0.610418 0.336444
vt 0.501529 0.464411
vt 0.335360 0.484857
vt 0.191119 0.370725
vt 0.661589 0.107301
vt 0.738194 0.377620
vt 0.568283 0.588220
vt 0.300318 0.613076
vt 0.181498 0.180491
vt 0.305287 0.107530
vt 0.434096 0.037340
vt 0.119472 0.404022
vt 0.009288 0.416103
vt 0.167442 0.169311
vt 0.303965 0.105204
vt 0.431992 0.018984
vt 0.733636 0.018984
vt 0.990747 0.392590
vt 0.736824 0.901946
vt 0.175591 0.829135
vn 1.000000 0.000000 0.000000
vn 0.000000 -1.000000 0.000000
vn 0.923877 0.000000 -0.382690
vn 0.382690 0.000000 0.923877
vn -0.923877 0.000000 0.382690
vn -0.382690 0.000000 -0.923877
vn 0.382690 0.000000 -0.923877
vn 0.923877 0.000000 0.382690
vn -0.382690 0.000000 0.923877
vn -0.923877 0.000000 -0.382690
vn 0.000000 -0.382690 0.923877
vn -0.000000 0.382690 -0.923877
vn -0.000000 -0.382690 -0.923877
vn -0.000000 -0.923877 -0.382690
vn -0.000000 0.923877 0.382690
vn 0.000000 -0.923877 0.382690
vn 0.000000 0.382690 0.923877
vn -0.000000 0.923877 -0.382690
vn -0.382300 0.049700 -0.922701
vn 0.382397 -0.049100 -0.922693
vn 0.918934 -0.106304 0.379814
vn -0.382300 0.049700 0.922701
vn -0.917258 0.119695 -0.379883
vn 0.918934 -0.106304 -0.379814
vn 0.382397 -0.049100 0.922693
vn -0.917258 0.119695 0.379883
vn 0.357099 -0.145299 -0.922696
vn 0.864287 -0.329795 0.379794
vn -0.356605 0.146402 0.922713
vn -0.855397 0.352099 -0.379899
vn 0.864287 -0.329795 -0.379794
vn 0.357099 -0.145299 0.922696
vn -0.855397 0.352099 0.379899
vn -0.356605 0.146402 -0.922713
vn -0.735108 0.561506 0.379904
vn -0.306510 0.233708 -0.922731
vn 0.307306 -0.232705 -0.922719
vn 0.749467 -0.542276 0.379783
vn -0.306510 0.233708 0.922731
vn -0.735108 0.561506 -0.379904
vn 0.749467 -0.542276 -0.379783
vn 0.307306 -0.232705 0.922719
vn 0.583578 -0.717774 -0.379786
vn 0.236606 -0.304307 0.922722
vn -0.564793 0.732591 0.379895
vn -0.235604 0.305105 -0.922714
vn 0.236606 -0.304307 -0.922722
vn 0.583578 -0.717774 0.379786
vn -0.235604 0.305105 0.922714
vn -0.564793 0.732591 -0.379895
vn -0.148602 0.355704 0.922709
vn -0.355907 0.853816 -0.379907
vn 0.377887 -0.844371 -0.379787
vn 0.149801 -0.355203 0.922708
vn -0.355907 0.853816 0.379907
vn -0.148602 0.355704 -0.922709
vn 0.149801 -0.355203 -0.922708
vn 0.377887 -0.844371 0.379787
vn 0.049201 -0.382310 -0.922723
vn 0.109799 -0.918490 0.379896
vn -0.049800 0.382298 0.922696
vn -0.119804 0.917231 -0.379913
vn 0.109799 -0.918490 -0.379896
vn 0.049201 -0.382310 0.922723
vn -0.119804 0.917231 0.379913
vn -0.049800 0.382298 -0.922696
usemtl pipebend_None
s off
f 307/329/149 308/330/149 309/331/149
f 309/331/149 302/332/149 307/329/149
f 302/332/149 303/333/149 306/334/149
f 302/332/149 306/334/149 307/329/149
f 304/335/149 305/336/149 303/333/149
f 303/333/149 305/336/149 306/334/149
f 325/337/150 324/338/150 318/339/150
f 324/338/150 322/340/150 319/341/150
f 323/342/150 322/340/150 324/338/150
f 322/340/150 320/343/150 319/341/150
f 324/338/150 319/341/150 318/339/150
f 322/340/150 321/344/150 320/343/150
usemtl pipebend_None_plain
f 270/345/151 278/346/151 277/347/151 269/348/151
f 268/349/152 276/350/152 275/351/152 267/352/152
f 266/353/153 274/354/153 273/355/153 265/356/153
f 264/357/154 272/358/154 271/359/154 263/360/154
f 263/360/155 271/359/155 278/346/155 270/345/155
f 269/348/156 277/347/156 276/350/156 268/349/156
f 267/352/157 275/351/157 274/354/157 266/353/157
f 265/361/158 273/362/158 272/363/158 264/364/158
f 269/348/150 268/349/150 315/365/150 316/366/150
f 263/360/150 270/345/150 317/367/150 310/368/150
f 264/357/150 263/360/150 310/368/150 311/369/150
f 266/353/150 265/356/150 312/370/150 313/371/150
f 268/349/150 267/352/150 314/372/150 315/365/150
f 270/345/150 269/348/150 316/366/150 317/367/150
f 282/373/159 289/374/159 288/375/159 281/376/159
f 280/377/160 285/378/160 284/379/160 279/380/160
f 279/380/161 284/379/161 291/381/161 283/382/161
f 283/382/162 291/381/162 290/383/162 277/384/162
f 293/385/163 287/386/163 286/387/163 292/388/163
f 277/384/164 290/383/164 289/374/164 282/373/164
f 281/376/165 288/375/165 287/386/165 293/385/165
f 292/388/166 286/387/166 285/378/166 280/377/166
f 290/383/149 291/381/149 301/389/149 300/390/149
f 288/375/149 289/374/149 299/391/149 298/392/149
f 286/387/149 287/386/149 297/393/149 296/394/149
f 284/379/149 285/378/149 295/395/149 294/396/149
f 291/381/149 284/379/149 294/396/149 301/389/149
f 289/374/149 290/383/149 300/390/149 299/391/149
f 287/386/149 288/375/149 298/392/149 297/393/149
f 285/378/149 286/387/149 296/394/149 295/395/149
f 299/391/166 300/390/166 308/397/166 307/398/166
f 297/393/161 298/392/161 306/399/161 305/400/161
f 295/395/164 296/394/164 304/401/164 303/402/164
f 300/390/163 301/389/163 309/403/163 308/397/163
f 298/392/160 299/391/160 307/398/160 306/399/160
f 296/394/162 297/393/162 305/400/162 304/401/162
f 294/396/159 295/395/159 303/402/159 302/404/159
f 301/389/165 294/396/165 302/404/165 309/403/165
f 267/352/150 266/353/150 313/371/150 314/372/150
f 265/356/150 264/357/150 311/369/150 312/370/150
f 316/366/158 315/365/158 323/405/158 324/406/158
f 311/369/152 310/368/152 318/407/152 319/408/152
f 313/371/151 312/370/151 320/409/151 321/410/151
f 315/365/154 314/372/154 322/411/154 323/405/154
f 317/367/153 316/366/153 324/406/153 325/412/153
f 312/370/156 311/369/156 319/408/156 320/409/156
f 314/372/155 313/371/155 321/410/155 322/411/155
f 310/368/157 317/367/157 325/412/157 318/407/157
f 271/359/167 272/358/167 327/413/167 326/414/167
f 278/346/168 271/359/168 326/414/168 333/415/168
f 276/350/169 277/347/169 332/416/169 331/417/169
f 274/354/170 275/351/170 330/418/170 329/419/170
f 272/358/171 273/355/171 328/420/171 327/413/171
f 277/347/172 278/346/172 333/415/172 332/416/172
f 275/351/173 276/350/173 331/417/173 330/418/173
f 273/355/174 274/354/174 329/419/174 328/420/174
f 333/415/175 326/414/175 334/421/175 341/422/175
f 331/417/176 332/416/176 340/423/176 339/424/176
f 329/419/177 330/418/177 338/425/177 337/426/177
f 327/413/178 328/420/178 336/427/178 335/428/178
f 332/416/179 333/415/179 341/422/179 340/423/179
f 330/418/180 331/417/180 339/424/180 338/425/180
f 328/420/181 329/419/181 337/426/181 336/427/181
f 326/414/182 327/413/182 335/428/182 334/421/182
f 336/427/183 337/426/183 345/429/183 344/430/183
f 334/421/184 335/428/184 343/431/184 342/432/184
f 341/422/185 334/421/185 342/432/185 349/433/185
f 339/424/186 340/423/186 348/434/186 347/435/186
f 337/426/187 338/425/187 346/436/187 345/429/187
f 335/428/188 336/427/188 344/430/188 343/431/188
f 340/423/189 341/422/189 349/433/189 348/434/189
f 338/425/190 339/424/190 347/435/190 346/436/190
f 348/434/191 349/433/191 357/437/191 356/438/191
f 346/436/192 347/435/192 355/439/192 354/440/192
f 344/430/193 345/429/193 353/441/193 352/442/193
f 342/432/194 343/431/194 351/443/194 350/444/194
f 349/433/195 342/432/195 350/444/195 357/437/195
f 347/435/196 348/434/196 356/438/196 355/439/196
f 345/429/197 346/436/197 354/440/197 353/441/197
f 343/431/198 344/430/198 352/442/198 351/443/198
f 353/441/199 354/440/199 362/445/199 361/446/199
f 351/443/200 352/442/200 360/447/200 359/448/200
f 356/438/201 357/437/201 365/449/201 364/450/201
f 354/440/202 355/439/202 363/451/202 362/445/202
f 352/442/203 353/441/203 361/446/203 360/447/203
f 350/444/204 351/443/204 359/448/204 358/452/204
f 357/437/205 350/444/205 358/452/205 365/449/205
f 355/439/206 356/438/206 364/450/206 363/451/206
f 365/449/207 358/452/207 366/453/207 373/454/207
f 363/451/208 364/450/208 372/455/208 371/456/208
f 361/446/209 362/445/209 370/457/209 369/458/209
f 359/448/210 360/447/210 368/459/210 367/460/210
f 364/450/211 365/449/211 373/454/211 372/455/211
f 362/445/212 363/451/212 371/456/212 370/457/212
f 360/447/213 361/446/213 369/458/213 368/459/213
f 358/452/214 359/448/214 367/460/214 366/453/214
g s5_pipebend
v 0.749999 0.500000 0.530000
v 0.905562 0.500000 0.594436
v 0.969999 0.500000 0.750000
v 0.905562 0.500000 0.905563
v 0.749999 0.500000 0.970000
v 0.594435 0.500000 0.905563
v 0.529999 0.500000 0.750000
v 0.594435 0.500000 0.594436
v 0.749999 0.470000 0.530000
v 0.905562 0.470000 0.594436
v 0.969999 0.470000 0.750000
v 0.905562 0.470000 0.905563
v 0.749999 0.470000 0.970000
v 0.594435 0.470000 0.905563
v 0.529999 0.470000 0.750000
v 0.594435 0.470000 0.594436
v 0.529999 0.250000 0.530000
v 0.529999 0.094437 0.594436
v 0.529999 0.250000 0.970000
v 0.529999 0.405564 0.905563
v 0.529999 0.405564 0.594436
v 0.499999 0.250000 0.530000
v 0.499999 0.094436 0.594436
v 0.499999 0.030000 0.750000
v 0.499999 0.094437 0.905563
v 0.499999 0.250000 0.970000
v 0.499999 0.405564 0.905563
v 0.499999 0.470000 0.750000
v 0.499999 0.405564 0.594436
v 0.529999 0.030000 0.750000
v 0.529999 0.094437 0.905563
v 0.499999 0.250000 0.569164
v 0.499999 0.122130 0.622130
v 0.499999 0.069164 0.750000
v 0.499999 0.122130 0.877870
v 0.499999 0.250000 0.930835
v 0.499999 0.377870 0.877870
v 0.499999 0.430836 0.750000
v 0.499999 0.377870 0.622130
v 0.529999 0.250000 0.569164
v 0.529999 0.122130 0.622130
v 0.529999 0.069164 0.750000
v 0.529999 0.122130 0.877870
v 0.529999 0.250000 0.930835
v 0.529999 0.377870 0.877870
v 0.529999 0.430836 0.750000
v 0.529999 0.377870 0.622130
v 0.749999 0.500000 0.557658
v 0.886005 0.500000 0.613994
v 0.942341 0.500000 0.750000
v 0.886005 0.500000 0.886006
v 0.749999 0.500000 0.942341
v 0.613993 0.500000 0.886006
v 0.557657 0.500000 0.750000
v 0.613993 0.500000 0.613994
v 0.749999 0.470000 0.557658
v 0.886005 0.470000 0.613994
v 0.942341 0.470000 0.750000
v 0.886005 0.470000 0.886006
v 0.749999 0.470000 0.942341
v 0.613993 0.470000 0.886006
v 0.557657 0.470000 0.750000
v 0.613993 0.470000 0.613994
v 0.742737 0.413935 0.530000
v 0.893000 0.373673 0.594436
v 0.955241 0.356995 0.750000
v 0.893000 0.373673 0.905563
v 0.742737 0.413935 0.970000
v 0.592474 0.454198 0.905563
v 0.530234 0.470875 0.750000
v 0.592474 0.454198 0.594436
v 0.720978 0.360785 0.530000
v 0.855700 0.283003 0.594436
v 0.911503 0.250785 0.750000
v 0.855700 0.283003 0.905563
v 0.720978 0.360785 0.970000
v 0.586256 0.438567 0.905563
v 0.530452 0.470785 0.750000
v 0.586256 0.438567 0.594436
v 0.686203 0.315077 0.530000
v 0.796203 0.205077 0.594436
v 0.841767 0.159514 0.750000
v 0.796203 0.205077 0.905563
v 0.686203 0.315077 0.970000
v 0.576203 0.425077 0.905563
v 0.530640 0.470641 0.750000
v 0.576203 0.425077 0.594436
v 0.640784 0.279928 0.530000
v 0.718566 0.145206 0.594436
v 0.750784 0.089402 0.750000
v 0.718566 0.145206 0.905563
v 0.640784 0.279928 0.970000
v 0.563002 0.414650 0.905563
v 0.530784 0.470453 0.750000
v 0.563002 0.414650 0.594436
v 0.587815 0.257731 0.530000
v 0.628077 0.107468 0.594436
v 0.644755 0.045227 0.750000
v 0.628077 0.107468 0.905563
v 0.587815 0.257731 0.970000
v 0.547552 0.407994 0.905563
v 0.530874 0.470235 0.750000
v 0.547552 0.407994 0.594436
v 0.530030 0.250235 0.530000
v 0.530030 0.094671 0.594436
v 0.530030 0.030235 0.750000
v 0.530030 0.094671 0.905563
v 0.530030 0.250235 0.970000
v 0.530030 0.405798 0.905563
v 0.530030 0.470235 0.750000
v 0.530030 0.405798 0.594436
vt 0.159965 0.174725
vt 0.490675 0.037741
vt 0.821385 0.174725
vt 0.958369 0.505435
vt 0.821385 0.836145
vt 0.022980 0.505435
vt 0.490675 0.973130
vt 0.159965 0.836145
vt 0.813777 0.183676
vt 0.945850 0.502527
vt 0.494926 0.051604
vt 0.494926 0.953451
vt 0.176075 0.183676
vt 0.813777 0.821378
vt 0.044003 0.502527
vt 0.176075 0.821378
vt 0.274775 0.199144
vt 0.254152 0.197397
vt 0.310435 0.116660
vt 0.318312 0.132710
vt 0.397839 0.127506
vt 0.409532 0.109738
vt 0.442698 0.189733
vt 0.430589 0.190582
vt 0.420111 0.237961
vt 0.427331 0.242345
vt 0.397258 0.271566
vt 0.394015 0.264672
vt 0.356047 0.271083
vt 0.355362 0.279585
vt 0.302593 0.266042
vt 0.310003 0.257047
vt 0.257919 0.046524
vt 0.296837 0.124273
vt 0.084574 0.444434
vt 0.009383 0.431234
vt 0.390643 0.139756
vt 0.324535 0.144250
vt 0.288686 0.200208
vt 0.315763 0.250382
vt 0.356786 0.264351
vt 0.391406 0.259316
vt 0.414196 0.234763
vt 0.421325 0.191916
vt 0.233030 0.461845
vt 0.282539 0.484692
vt 0.287841 0.728571
vt 0.237192 0.748722
vt 0.941349 0.745217
vt 0.891789 0.722609
vt 0.882316 0.479275
vt 0.932722 0.459325
vt 0.703267 0.308984
vt 0.725768 0.259374
vt 0.455823 0.310667
vt 0.437303 0.259373
vt 0.449060 0.942003
vt 0.470812 0.892561
vt 0.718818 0.894282
vt 0.736744 0.945685
vt 0.680671 0.362431
vt 0.476866 0.364564
vt 0.335362 0.507290
vt 0.340350 0.705597
vt 0.493150 0.838757
vt 0.698490 0.840399
vt 0.839107 0.700634
vt 0.829263 0.501988
vt 0.495909 0.404228
vt 0.376468 0.521297
vt 0.378315 0.684823
vt 0.506956 0.796229
vt 0.680235 0.800637
vt 0.798200 0.687415
vt 0.666707 0.404422
vt 0.790562 0.522629
vt 0.384899 0.152820
vt 0.332016 0.155639
vt 0.321970 0.242679
vt 0.357511 0.256471
vt 0.388128 0.253672
vt 0.407407 0.232083
vt 0.411739 0.194651
vt 0.303032 0.200243
vt 0.355772 0.308884
vt 0.288488 0.286129
vt 0.241715 0.196573
vt 0.309503 0.115003
vt 0.415558 0.098509
vt 0.467548 0.188125
vt 0.451103 0.258101
vt 0.411014 0.297240
vt 0.267852 0.310396
vt 0.227864 0.195067
vt 0.308540 0.113293
vt 0.421724 0.085658
vt 0.499536 0.183418
vt 0.484798 0.278317
vt 0.430658 0.333564
vt 0.354599 0.348450
vt 0.534166 0.303933
vt 0.459000 0.385846
vt 0.349436 0.403722
vt 0.237317 0.338752
vt 0.212823 0.192125
vt 0.307523 0.111489
vt 0.427274 0.070978
vt 0.540501 0.172615
vt 0.196840 0.187226
vt 0.306442 0.109573
vt 0.431638 0.054395
vt 0.593310 0.150483
vt 0.610418 0.336444
vt 0.501529 0.464411
vt 0.335360 0.484857
vt 0.191119 0.370725
vt 0.661589 0.107301
vt 0.738194 0.377620
vt 0.568283 0.588220
vt 0.300318 0.613076
vt 0.181498 0.180491
vt 0.305287 0.107530
vt 0.434096 0.037340
vt 0.119472 0.404022
vt 0.009288 0.416103
vt 0.167442 0.169311
vt 0.303965 0.105204
vt 0.431992 0.018984
vt 0.733636 0.018984
vt 0.990747 0.392590
vt 0.736824 0.901946
vt 0.175591 0.829135
vn -1.000000 0.000000 0.000000
vn 0.000000 1.000000 0.000000
vn -0.923877 0.000000 -0.382690
vn -0.382690 0.000000 0.923877
vn 0.923877 -0.000000 0.382690
vn 0.382690 -0.000000 -0.923877
vn -0.382690 0.000000 -0.923877
vn -0.923877 0.000000 0.382690
vn 0.382690 -0.000000 0.923877
vn 0.923877 -0.000000 -0.382690
vn 0.000000 0.382690 0.923877
vn 0.000000 -0.382690 -0.923877
vn 0.000000 0.382690 -0.923877
vn 0.000000 0.923877 -0.382690
vn 0.000000 -0.923877 0.382690
vn 0.000000 0.923877 0.382690
vn -0.000000 -0.382690 0.923877
vn 0.000000 -0.923877 -0.382690
vn 0.382300 -0.049700 -0.922701
vn -0.382397 0.049100 -0.922693
vn -0.918934 0.106304 0.379814
vn 0.382300 -0.049700 0.922701
vn 0.917258 -0.119695 -0.379883
vn -0.918934 0.106304 -0.379814
vn -0.382397 0.049100 0.922693
vn 0.917258 -0.119695 0.379883
vn -0.357099 0.145299 -0.922696
vn -0.864287 0.329795 0.379794
vn 0.356605 -0.146402 0.922713
vn 0.855397 -0.352099 -0.379899
vn -0.864287 0.329795 -0.379794
vn -0.357099 0.145299 0.922696
vn 0.855397 -0.352099 0.379899
vn 0.356605 -0.146402 -0.922713
vn 0.735108 -0.561506 0.379904
vn 0.306510 -0.233708 -0.922731
vn -0.307306 0.232705 -0.922719
vn -0.749467 0.542276 0.379783
vn 0.306510 -0.233708 0.922731
vn 0.735108 -0.561506 -0.379904
vn -0.749467 0.542276 -0.379783
vn -0.307306 0.232705 0.922719
vn -0.583578 0.717774 -0.379786
vn -0.236606 0.304307 0.922722
vn 0.564793 -0.732591 0.379895
vn 0.235604 -0.305105 -0.922714
vn -0.236606 0.304307 -0.922722
vn -0.583578 0.717774 0.379786
vn 0.235604 -0.305105 0.922714
vn 0.564793 -0.732591 -0.379895
vn 0.148602 -0.355704 0.922709
vn 0.355907 -0.853816 -0.379907
vn -0.377887 0.844371 -0.379787
vn -0.149801 0.355203 0.922708
vn 0.355907 -0.853816 0.379907
vn 0.148602 -0.355704 -0.922709
vn -0.149801 0.355203 -0.922708
vn -0.377887 0.844371 0.379787
vn -0.049201 0.382310 -0.922723
vn -0.109799 0.918490 0.379896
vn 0.049800 -0.382298 0.922696
vn 0.119804 -0.917231 -0.379913
vn -0.109799 0.918490 -0.379896
vn -0.049201 0.382310 0.922723
vn 0.119804 -0.917231 0.379913
vn 0.049800 -0.382298 -0.922696
usemtl pipebend_None
s off
f 418/461/215 419/462/215 420/463/215
f 420/463/215 413/464/215 418/461/215
f 413/464/215 414/465/215 417/466/215
f 413/464/215 417/466/215 418/461/215
f 415/467/215 416/468/215 414/465/215
f 414/465/215 416/468/215 417/466/215
f 436/469/216 435/470/216 429/471/216
f 435/470/216 433/472/216 430/473/216
f 434/474/216 433/472/216 435/470/216
f 433/472/216 431/475/216 430/473/216
f 435/470/216 430/473/216 429/471/216
f 433/472/216 432/476/216 431/475/216
usemtl pipebend_None_plain
f 381/477/217 389/478/217 388/479/217 380/480/217
f 379/481/218 387/482/218 386/483/218 378/484/218
f 377/485/219 385/486/219 384/487/219 376/488/219
f 375/489/220 383/490/220 382/491/220 374/492/220
f 374/492/221 382/491/221 389/478/221 381/477/221
f 380/480/222 388/479/222 387/482/222 379/481/222
f 378/484/223 386/483/223 385/486/223 377/485/223
f 376/493/224 384/494/224 383/495/224 375/496/224
f 380/480/216 379/481/216 426/497/216 427/498/216
f 374/492/216 381/477/216 428/499/216 421/500/216
f 375/489/216 374/492/216 421/500/216 422/501/216
f 377/485/216 376/488/216 423/502/216 424/503/216
f 379/481/216 378/484/216 425/504/216 426/497/216
f 381/477/216 380/480/216 427/498/216 428/499/216
f 393/505/225 400/506/225 399/507/225 392/508/225
f 391/509/226 396/510/226 395/511/226 390/512/226
f 390/512/227 395/511/227 402/513/227 394/514/227
f 394/514/228 402/513/228 401/515/228 388/516/228
f 404/517/229 398/518/229 397/519/229 403/520/229
f 388/516/230 401/515/230 400/506/230 393/505/230
f 392/508/231 399/507/231 398/518/231 404/517/231
f 403/520/232 397/519/232 396/510/232 391/509/232
f 401/515/215 402/513/215 412/521/215 411/522/215
f 399/507/215 400/506/215 410/523/215 409/524/215
f 397/519/215 398/518/215 408/525/215 407/526/215
f 395/511/215 396/510/215 406/527/215 405/528/215
f 402/513/215 395/511/215 405/528/215 412/521/215
f 400/506/215 401/515/215 411/522/215 410/523/215
f 398/518/215 399/507/215 409/524/215 408/525/215
f 396/510/215 397/519/215 407/526/215 406/527/215
f 410/523/232 411/522/232 419/529/232 418/530/232
f 408/525/227 409/524/227 417/531/227 416/532/227
f 406/527/230 407/526/230 415/533/230 414/534/230
f 411/522/229 412/521/229 420/535/229 419/529/229
f 409/524/226 410/523/226 418/530/226 417/531/226
f 407/526/228 408/525/228 416/532/228 415/533/228
f 405/528/225 406/527/225 414/534/225 413/536/225
f 412/521/231 405/528/231 413/536/231 420/535/231
f 378/484/216 377/485/216 424/503/216 425/504/216
f 376/488/216 375/489/216 422/501/216 423/502/216
f 427/498/224 426/497/224 434/537/224 435/538/224
f 422/501/218 421/500/218 429/539/218 430/540/218
f 424/503/217 423/502/217 431/541/217 432/542/217
f 426/497/220 425/504/220 433/543/220 434/537/220
f 428/499/219 427/498/219 435/538/219 436/544/219
f 423/502/222 422/501/222 430/540/222 431/541/222
f 425/504/221 424/503/221 432/542/221 433/543/221
f 421/500/223 428/499/223 436/544/223 429/539/223
f 382/491/233 383/490/233 438/545/233 437/546/233
f 389/478/234 382/491/234 437/546/234 444/547/234
f 387/482/235 388/479/235 443/548/235 442/549/235
f 385/486/236 386/483/236 441/550/236 440/551/236
f 383/490/237 384/487/237 439/552/237 438/545/237
f 388/479/238 389/478/238 444/547/238 443/548/238
f 386/483/239 387/482/239 442/549/239 441/550/239
f 384/487/240 385/486/240 440/551/240 439/552/240
f 444/547/241 437/546/241 445/553/241 452/554/241
f 442/549/242 443/548/242 451/555/242 450/556/242
f 440/551/243 441/550/243 449/557/243 448/558/243
f 438/545/244 439/552/244 447/559/244 446/560/244
f 443/548/245 444/547/245 452/554/245 451/555/245
f 441/550/246 442/549/246 450/556/246 449/557/246
f 439/552/247 440/551/247 448/558/247 447/559/247
f 437/546/248 438/545/248 446/560/248 445/553/248
f 447/559/249 448/558/249 456/561/249 455/562/249
f 445/553/250 446/560/250 454/563/250 453/564/250
f 452/554/251 445/553/251 453/564/251 460/565/251
f 450/556/252 451/555/252 459/566/252 458/567/252
f 448/558/253 449/557/253 457/568/253 456/561/253
f 446/560/254 447/559/254 455/562/254 454/563/254
f 451/555/255 452/554/255 460/565/255 459/566/255
f 449/557/256 450/556/256 458/567/256 457/568/256
f 459/566/257 460/565/257 468/569/257 467/570/257
f 457/568/258 458/567/258 466/571/258 465/572/258
f 455/562/259 456/561/259 464/573/259 463/574/259
f 453/564/260 454/563/260 462/575/260 461/576/260
f 460/565/261 453/564/261 461/576/261 468/569/261
f 458/567/262 459/566/262 467/570/262 466/571/262
f 456/561/263 457/568/263 465/572/263 464/573/263
f 454/563/264 455/562/264 463/574/264 462/575/264
f 464/573/265 465/572/265 473/577/265 472/578/265
f 462/575/266 463/574/266 471/579/266 470/580/266
f 467/570/267 468/569/267 476/581/267 475/582/267
f 465/572/268 466/571/268 474/583/268 473/577/268
f 463/574/269 464/573/269 472/578/269 471/579/269
f 461/576/270 462/575/270 470/580/270 469/584/270
f 468/569/271 461/576/271 469/584/271 476/581/271
f 466/571/272 467/570/272 475/582/272 474/583/272
f 476/581/273 469/584/273 477/585/273 484/586/273
f 474/583/274 475/582/274 483/587/274 482/588/274
f 472/578/275 473/577/275 481/589/275 480/590/275
f 470/580/276 471/579/276 479/591/276 478/592/276
f 475/582/277 476/581/277 484/586/277 483/587/277
f 473/577/278 474/583/278 482/588/278 481/589/278
f 471/579/279 472/578/279 480/590/279 479/591/279
f 469/584/280 470/580/280 478/592/280 477/585/280
g s6_pipe
v 0.250001 0.970000 0.500000
v 0.094438 0.905564 0.500000
v 0.030001 0.750000 0.500000
v 0.094438 0.594437 0.500000
v 0.250001 0.530000 0.500000
v 0.405565 0.594437 0.500000
v 0.470001 0.750000 0.500000
v 0.405565 0.905564 0.500000
v 0.250001 0.970000 1.000000
v 0.094438 0.905564 1.000000
v 0.030001 0.750000 1.000000
v 0.094438 0.594437 1.000000
v 0.250001 0.530000 1.000000
v 0.405565 0.594437 1.000000
v 0.470001 0.750000 1.000000
v 0.405565 0.905564 1.000000
vt 0.816951 0.018980
vt 0.816951 0.981912
vt 0.517357 0.981912
vt 0.517357 0.018980
vt 0.851252 0.017074
vt 0.851252 0.983818
vt 0.550471 0.983818
vt 0.550471 0.017074
vt 0.217762 0.018980
vt 0.217762 0.981912
vt 0.517357 0.981912
vt 0.517357 0.018980
vt 0.249691 0.017074
vt 0.249691 0.983818
vt 0.550471 0.983818
vt 0.550471 0.017074
vt 0.851252 0.983818
vt 0.851252 0.017074
vt 0.217762 0.981912
vt 0.217762 0.018980
vt 0.249691 0.983818
vt 0.249691 0.017074
vt 0.816951 0.981912
vt 0.816951 0.018980
vt 0.833993 0.844330
vt 0.494974 0.984756
vt 0.155956 0.844330
vt 0.974419 0.505312
vt 0.015530 0.505312
vt 0.494974 0.025867
vt 0.155956 0.166293
vt 0.833993 0.166293
vt 0.820102 0.179229
vt 0.190314 0.179229
vt 0.505208 0.048795
vt 0.950535 0.494123
vt 0.059880 0.494123
vt 0.820102 0.809016
vt 0.190314 0.809016
vt 0.505208 0.939450
vn 0.923877 0.382690 0.000000
vn 0.382690 -0.923877 0.000000
vn -0.923877 -0.382690 0.000000
vn -0.382690 0.923877 0.000000
vn 0.382690 0.923877 0.000000
vn 0.923877 -0.382690 0.000000
vn -0.382690 -0.923877 0.000000
vn -0.923877 0.382690 0.000000
vn 0.000000 0.000000 1.000000
vn 0.000000 -0.000000 -1.000000
usemtl pipe_None
s off
f 492/593/281 500/594/281 499/595/281 491/596/281
f 490/597/282 498/598/282 497/599/282 489/600/282
f 488/601/283 496/602/283 495/603/283 487/604/283
f 486/605/284 494/606/284 493/607/284 485/608/284
f 485/608/285 493/607/285 500/609/285 492/610/285
f 491/596/286 499/595/286 498/611/286 490/612/286
f 489/600/287 497/599/287 496/613/287 488/614/287
f 487/604/288 495/603/288 494/615/288 486/616/288
f 500/617/289 493/618/289 494/619/289
f 499/620/289 500/617/289 494/619/289
f 499/620/289 494/619/289 495/621/289
f 495/621/289 497/622/289 499/620/289
f 496/623/289 497/622/289 495/621/289
f 497/622/289 498/624/289 499/620/289
f 492/625/290 486/626/290 485/627/290
f 491/628/290 486/626/290 492/625/290
f 491/628/290 487/629/290 486/626/290
f 490/630/290 487/629/290 491/628/290
f 490/630/290 488/631/290 487/629/290
f 489/632/290 488/631/290 490/630/290
g s7_pipe
v 0.750001 0.500000 0.530000
v 0.594438 0.500000 0.594436
v 0.530001 0.500000 0.750000
v 0.594438 0.500000 0.905563
v 0.750001 0.500000 0.970000
v 0.905565 0.500000 0.905563
v 0.970001 0.500000 0.750000
v 0.905565 0.500000 0.594436
v 0.750001 1.000000 0.530000
v 0.594438 1.000000 0.594436
v 0.530001 1.000000 0.750000
v 0.594438 1.000000 0.905563
v 0.750001 1.000000 0.970000
v 0.905565 1.000000 0.905563
v 0.970001 1.000000 0.750000
v 0.905565 1.000000 0.594436
vt 0.816951 0.018980
vt 0.816951 0.981912
vt 0.517357 0.981912
vt 0.517357 0.018980
vt 0.851252 0.017074
vt 0.851252 0.983818
vt 0.550471 0.983818
vt 0.550471 0.017074
vt 0.217762 0.018980
vt 0.217762 0.981912
vt 0.517357 0.981912
vt 0.517357 0.018980
vt 0.249691 0.017074
vt 0.249691 0.983818
vt 0.550471 0.983818
vt 0.550471 0.017074
vt 0.851252 0.983818
vt 0.851252 0.017074
vt 0.217762 0.981912
vt 0.217762 0.018980
vt 0.249691 0.983818
vt 0.249691 0.017074
vt 0.816951 0.981912
vt 0.816951 0.018980
vt 0.833993 0.844330
vt 0.494974 0.984756
vt 0.155956 0.844330
vt 0.974419 0.505312
vt 0.015530 0.505312
vt 0.494974 0.025867
vt 0.155956 0.166293
vt 0.833993 0.166293
vt 0.820102 0.179229
vt 0.190314 0.179229
vt 0.505208 0.048795
vt 0.950535 0.494123
vt 0.059880 0.494123
vt 0.820102 0.809016
vt 0.190314 0.809016
vt 0.505208 0.939450
vn 0.923877 0.000000 -0.382690
vn 0.382690 0.000000 0.923877
vn -0.923877 0.000000 0.382690
vn -0.382690 0.000000 -0.923877
vn 0.382690 0.000000 -0.923877
vn 0.923877 0.000000 0.382690
vn -0.382690 0.000000 0.923877
vn -0.923877 0.000000 -0.382690
vn 0.000000 1.000000 0.000000
vn 0.000000 -1.000000 0.000000
usemtl pipe_None
s off
f 508/633/291 516/634/291 515/635/291 507/636/291
f 506/637/292 514/638/292 513/639/292 505/640/292
f 504/641/293 512/642/293 511/643/293 503/644/293
f 502/645/294 510/646/294 509/647/294 501/648/294
f 501/648/295 509/647/295 516/649/295 508/650/295
f 507/636/296 515/635/296 514/651/296 506/652/296
f 505/640/297 513/639/297 512/653/297 504/654/297
f 503/644/298 511/643/298 510/655/298 502/656/298
f 516/657/299 509/658/299 510/659/299
f 515/660/299 516/657/299 510/659/299
f 515/660/299 510/659/299 511/661/299
f 511/661/299 513/662/299 515/660/299
f 512/663/299 513/662/299 511/661/299
f 513/662/299 514/664/299 515/660/299
f 508/665/300 502/666/300 501/667/300
f 507/668/300 502/666/300 508/665/300
f 507/668/300 503/669/300 502/666/300
f 506/670/300 503/669/300 507/668/300
f 506/670/300 504/671/300 503/669/300
f 505/672/300 504/671/300 506/670/300
