# EFab pipe state 1 - generated from old 1.12 blockstate submodels
mtllib pipes_old.mtl
o pipes_state1
g s0_pipe
v 0.500000 0.250001 0.030000
v 0.500000 0.094438 0.094436
v 0.500000 0.030001 0.250000
v 0.500000 0.094438 0.405563
v 0.500000 0.250001 0.470000
v 0.500000 0.405565 0.405563
v 0.500000 0.470001 0.250000
v 0.500000 0.405565 0.094436
v 0.000000 0.250001 0.030000
v 0.000000 0.094438 0.094436
v 0.000000 0.030001 0.250000
v 0.000000 0.094438 0.405563
v 0.000000 0.250001 0.470000
v 0.000000 0.405565 0.405563
v 0.000000 0.470001 0.250000
v 0.000000 0.405565 0.094436
vt 0.816951 0.018980
vt 0.816951 0.981912
vt 0.517357 0.981912
vt 0.517357 0.018980
vt 0.851252 0.017074
vt 0.851252 0.983818
vt 0.550471 0.983818
vt 0.550471 0.017074
vt 0.217762 0.018980
vt 0.217762 0.981912
vt 0.517357 0.981912
vt 0.517357 0.018980
vt 0.249691 0.017074
vt 0.249691 0.983818
vt 0.550471 0.983818
vt 0.550471 0.017074
vt 0.851252 0.983818
vt 0.851252 0.017074
vt 0.217762 0.981912
vt 0.217762 0.018980
vt 0.249691 0.983818
vt 0.249691 0.017074
vt 0.816951 0.981912
vt 0.816951 0.018980
vt 0.833993 0.844330
vt 0.494974 0.984756
vt 0.155956 0.844330
vt 0.974419 0.505312
vt 0.015530 0.505312
vt 0.494974 0.025867
vt 0.155956 0.166293
vt 0.833993 0.166293
vt 0.820102 0.179229
vt 0.190314 0.179229
vt 0.505208 0.048795
vt 0.950535 0.494123
vt 0.059880 0.494123
vt 0.820102 0.809016
vt 0.190314 0.809016
vt 0.505208 0.939450
vn 0.000000 0.923877 -0.382690
vn 0.000000 0.382690 0.923877
vn -0.000000 -0.923877 0.382690
vn -0.000000 -0.382690 -0.923877
vn 0.000000 0.382690 -0.923877
vn 0.000000 0.923877 0.382690
vn -0.000000 -0.382690 0.923877
vn -0.000000 -0.923877 -0.382690
vn -1.000000 0.000000 0.000000
vn 1.000000 0.000000 0.000000
usemtl pipe_None
s off
f 8/1/1 16/2/1 15/3/1 7/4/1
f 6/5/2 14/6/2 13/7/2 5/8/2
f 4/9/3 12/10/3 11/11/3 3/12/3
f 2/13/4 10/14/4 9/15/4 1/16/4
f 1/16/5 9/15/5 16/17/5 8/18/5
f 7/4/6 15/3/6 14/19/6 6/20/6
f 5/8/7 13/7/7 12/21/7 4/22/7
f 3/12/8 11/11/8 10/23/8 2/24/8
f 16/25/9 9/26/9 10/27/9
f 15/28/9 16/25/9 10/27/9
f 15/28/9 10/27/9 11/29/9
f 11/29/9 13/30/9 15/28/9
f 12/31/9 13/30/9 11/29/9
f 13/30/9 14/32/9 15/28/9
f 8/33/10 2/34/10 1/35/10
f 7/36/10 2/34/10 8/33/10
f 7/36/10 3/37/10 2/34/10
f 6/38/10 3/37/10 7/36/10
f 6/38/10 4/39/10 3/37/10
f 5/40/10 4/39/10 6/38/10
g s1_pipebend
v 0.749999 0.500000 0.030000
v 0.905562 0.500000 0.094436
v 0.969999 0.500000 0.250000
v 0.905562 0.500000 0.405563
v 0.749999 0.500000 0.470000
v 0.594435 0.500000 0.405563
v 0.529999 0.500000 0.250000
v 0.594435 0.500000 0.094436
v 0.749999 0.470000 0.030000
v 0.905562 0.470000 0.094436
v 0.969999 0.470000 0.250000
v 0.905562 0.470000 0.405563
v 0.749999 0.470000 0.470000
v 0.594435 0.470000 0.405563
v 0.529999 0.470000 0.250000
v 0.594435 0.470000 0.094436
v 0.529999 0.250000 0.030000
v 0.529999 0.094437 0.094436
v 0.529999 0.250000 0.470000
v 0.529999 0.405564 0.405563
v 0.529999 0.405564 0.094436
v 0.499999 0.250000 0.030000
v 0.499999 0.094436 0.094436
v 0.499999 0.030000 0.250000
v 0.499999 0.094437 0.405563
v 0.499999 0.250000 0.470000
v 0.499999 0.405564 0.405563
v 0.499999 0.470000 0.250000
v 0.499999 0.405564 0.094436
v 0.529999 0.030000 0.250000
v 0.529999 0.094437 0.405563
v 0.499999 0.250000 0.069164
v 0.499999 0.122130 0.122130
v 0.499999 0.069164 0.250000
v 0.499999 0.122130 0.377870
v 0.499999 0.250000 0.430835
v 0.499999 0.377870 0.377870
v 0.499999 0.430836 0.250000
v 0.499999 0.377870 0.122130
v 0.529999 0.250000 0.069164
v 0.529999 0.122130 0.122130
v 0.529999 0.069164 0.250000
v 0.529999 0.122130 0.377870
v 0.529999 0.250000 0.430835
v 0.529999 0.377870 0.377870
v 0.529999 0.430836 0.250000
v 0.529999 0.377870 0.122130
v 0.749999 0.500000 0.057658
v 0.886005 0.500000 0.113994
v 0.942341 0.500000 0.250000
v 0.886005 0.500000 0.386006
v 0.749999 0.500000 0.442341
v 0.613993 0.500000 0.386006
v 0.557657 0.500000 0.250000
v 0.613993 0.500000 0.113994
v 0.749999 0.470000 0.057658
v 0.886005 0.470000 0.113994
v 0.942341 0.470000 0.250000
v 0.886005 0.470000 0.386006
v 0.749999 0.470000 0.442341
v 0.613993 0.470000 0.386006
v 0.557657 0.470000 0.250000
v 0.613993 0.470000 0.113994
v 0.742737 0.413935 0.030000
v 0.893000 0.373673 0.094436
v 0.955241 0.356995 0.250000
v 0.893000 0.373673 0.405563
v 0.742737 0.413935 0.470000
v 0.592474 0.454198 0.405563
v 0.530234 0.470875 0.250000
v 0.592474 0.454198 0.094436
v 0.720978 0.360785 0.030000
v 0.855700 0.283003 0.094436
v 0.911503 0.250785 0.250000
v 0.855700 0.283003 0.405563
v 0.720978 0.360785 0.470000
v 0.586256 0.438567 0.405563
v 0.530452 0.470785 0.250000
v 0.586256 0.438567 0.094436
v 0.686203 0.315077 0.030000
v 0.796203 0.205077 0.094436
v 0.841767 0.159514 0.250000
v 0.796203 0.205077 0.405563
v 0.686203 0.315077 0.470000
v 0.576203 0.425077 0.405563
v 0.530640 0.470641 0.250000
v 0.576203 0.425077 0.094436
v 0.640784 0.279928 0.030000
v 0.718566 0.145206 0.094436
v 0.750784 0.089402 0.250000
v 0.718566 0.145206 0.405563
v 0.640784 0.279928 0.470000
v 0.563002 0.414650 0.405563
v 0.530784 0.470453 0.250000
v 0.563002 0.414650 0.094436
v 0.587815 0.257731 0.030000
v 0.628077 0.107468 0.094436
v 0.644755 0.045227 0.250000
v 0.628077 0.107468 0.405563
v 0.587815 0.257731 0.470000
v 0.547552 0.407994 0.405563
v 0.530874 0.470235 0.250000
v 0.547552 0.407994 0.094436
v 0.530030 0.250235 0.030000
v 0.530030 0.094671 0.094436
v 0.530030 0.030235 0.250000
v 0.530030 0.094671 0.405563
v 0.530030 0.250235 0.470000
v 0.530030 0.405798 0.405563
v 0.530030 0.470235 0.250000
v 0.530030 0.405798 0.094436
vt 0.159965 0.174725
vt 0.490675 0.037741
vt 0.821385 0.174725
vt 0.958369 0.505435
vt 0.821385 0.836145
vt 0.022980 0.505435
vt 0.490675 0.973130
vt 0.159965 0.836145
vt 0.813777 0.183676
vt 0.945850 0.502527
vt 0.494926 0.051604
vt 0.494926 0.953451
vt 0.176075 0.183676
vt 0.813777 0.821378
vt 0.044003 0.502527
vt 0.176075 0.821378
vt 0.274775 0.199144
vt 0.254152 0.197397
vt 0.310435 0.116660
vt 0.318312 0.132710
vt 0.397839 0.127506
vt 0.409532 0.109738
vt 0.442698 0.189733
vt 0.430589 0.190582
vt 0.420111 0.237961
vt 0.427331 0.242345
vt 0.397258 0.271566
vt 0.394015 0.264672
vt 0.356047 0.271083
vt 0.355362 0.279585
vt 0.302593 0.266042
vt 0.310003 0.257047
vt 0.257919 0.046524
vt 0.296837 0.124273
vt 0.084574 0.444434
vt 0.009383 0.431234
vt 0.390643 0.139756
vt 0.324535 0.144250
vt 0.288686 0.200208
vt 0.315763 0.250382
vt 0.356786 0.264351
vt 0.391406 0.259316
vt 0.414196 0.234763
vt 0.421325 0.191916
vt 0.233030 0.461845
vt 0.282539 0.484692
vt 0.287841 0.728571
vt 0.237192 0.748722
vt 0.941349 0.745217
vt 0.891789 0.722609
vt 0.882316 0.479275
vt 0.932722 0.459325
vt 0.703267 0.308984
vt 0.725768 0.259374
vt 0.455823 0.310667
vt 0.437303 0.259373
vt 0.449060 0.942003
vt 0.470812 0.892561
vt 0.718818 0.894282
vt 0.736744 0.945685
vt 0.680671 0.362431
vt 0.476866 0.364564
vt 0.335362 0.507290
vt 0.340350 0.705597
vt 0.493150 0.838757
vt 0.698490 0.840399
vt 0.839107 0.700634
vt 0.829263 0.501988
vt 0.495909 0.404228
vt 0.376468 0.521297
vt 0.378315 0.684823
vt 0.506956 0.796229
vt 0.680235 0.800637
vt 0.798200 0.687415
vt 0.666707 0.404422
vt 0.790562 0.522629
vt 0.384899 0.152820
vt 0.332016 0.155639
vt 0.321970 0.242679
vt 0.357511 0.256471
vt 0.388128 0.253672
vt 0.407407 0.232083
vt 0.411739 0.194651
vt 0.303032 0.200243
vt 0.355772 0.308884
vt 0.288488 0.286129
vt 0.241715 0.196573
vt 0.309503 0.115003
vt 0.415558 0.098509
vt 0.467548 0.188125
vt 0.451103 0.258101
vt 0.411014 0.297240
vt 0.267852 0.310396
vt 0.227864 0.195067
vt 0.308540 0.113293
vt 0.421724 0.085658
vt 0.499536 0.183418
vt 0.484798 0.278317
vt 0.430658 0.333564
vt 0.354599 0.348450
vt 0.534166 0.303933
vt 0.459000 0.385846
vt 0.349436 0.403722
vt 0.237317 0.338752
vt 0.212823 0.192125
vt 0.307523 0.111489
vt 0.427274 0.070978
vt 0.540501 0.172615
vt 0.196840 0.187226
vt 0.306442 0.109573
vt 0.431638 0.054395
vt 0.593310 0.150483
vt 0.610418 0.336444
vt 0.501529 0.464411
vt 0.335360 0.484857
vt 0.191119 0.370725
vt 0.661589 0.107301
vt 0.738194 0.377620
vt 0.568283 0.588220
vt 0.300318 0.613076
vt 0.181498 0.180491
vt 0.305287 0.107530
vt 0.434096 0.037340
vt 0.119472 0.404022
vt 0.009288 0.416103
vt 0.167442 0.169311
vt 0.303965 0.105204
vt 0.431992 0.018984
vt 0.733636 0.018984
vt 0.990747 0.392590
vt 0.736824 0.901946
vt 0.175591 0.829135
vn -1.000000 0.000000 0.000000
vn 0.000000 1.000000 0.000000
vn -0.923877 0.000000 -0.382690
vn -0.382690 0.000000 0.923877
vn 0.923877 -0.000000 0.382690
vn 0.382690 -0.000000 -0.923877
vn -0.382690 0.000000 -0.923877
vn -0.923877 0.000000 0.382690
vn 0.382690 -0.000000 0.923877
vn 0.923877 -0.000000 -0.382690
vn 0.000000 0.382690 0.923877
vn 0.000000 -0.382690 -0.923877
vn 0.000000 0.382690 -0.923877
vn 0.000000 0.923877 -0.382690
vn 0.000000 -0.923877 0.382690
vn 0.000000 0.923877 0.382690
vn -0.000000 -0.382690 0.923877
vn 0.000000 -0.923877 -0.382690
vn 0.382300 -0.049700 -0.922701
vn -0.382397 0.049100 -0.922693
vn -0.918934 0.106304 0.379814
vn 0.382300 -0.049700 0.922701
vn 0.917258 -0.119695 -0.379883
vn -0.918934 0.106304 -0.379814
vn -0.382397 0.049100 0.922693
vn 0.917258 -0.119695 0.379883
vn -0.357099 0.145299 -0.922696
vn -0.864287 0.329795 0.379794
vn 0.356605 -0.146402 0.922713
vn 0.855397 -0.352099 -0.379899
vn -0.864287 0.329795 -0.379794
vn -0.357099 0.145299 0.922696
vn 0.855397 -0.352099 0.379899
vn 0.356605 -0.146402 -0.922713
vn 0.735108 -0.561506 0.379904
vn 0.306510 -0.233708 -0.922731
vn -0.307306 0.232705 -0.922719
vn -0.749467 0.542276 0.379783
vn 0.306510 -0.233708 0.922731
vn 0.735108 -0.561506 -0.379904
vn -0.749467 0.542276 -0.379783
vn -0.307306 0.232705 0.922719
vn -0.583578 0.717774 -0.379786
vn -0.236606 0.304307 0.922722
vn 0.564793 -0.732591 0.379895
vn 0.235604 -0.305105 -0.922714
vn -0.236606 0.304307 -0.922722
vn -0.583578 0.717774 0.379786
vn 0.235604 -0.305105 0.922714
vn 0.564793 -0.732591 -0.379895
vn 0.148602 -0.355704 0.922709
vn 0.355907 -0.853816 -0.379907
vn -0.377887 0.844371 -0.379787
vn -0.149801 0.355203 0.922708
vn 0.355907 -0.853816 0.379907
vn 0.148602 -0.355704 -0.922709
vn -0.149801 0.355203 -0.922708
vn -0.377887 0.844371 0.379787
vn -0.049201 0.382310 -0.922723
vn -0.109799 0.918490 0.379896
vn 0.049800 -0.382298 0.922696
vn 0.119804 -0.917231 -0.379913
vn -0.109799 0.918490 -0.379896
vn -0.049201 0.382310 0.922723
vn 0.119804 -0.917231 0.379913
vn 0.049800 -0.382298 -0.922696
usemtl pipebend_None
s off
f 61/41/11 62/42/11 63/43/11
f 63/43/11 56/44/11 61/41/11
f 56/44/11 57/45/11 60/46/11
f 56/44/11 60/46/11 61/41/11
f 58/47/11 59/48/11 57/45/11
f 57/45/11 59/48/11 60/46/11
f 79/49/12 78/50/12 72/51/12
f 78/50/12 76/52/12 73/53/12
f 77/54/12 76/52/12 78/50/12
f 76/52/12 74/55/12 73/53/12
f 78/50/12 73/53/12 72/51/12
f 76/52/12 75/56/12 74/55/12
usemtl pipebend_None_plain
f 24/57/13 32/58/13 31/59/13 23/60/13
f 22/61/14 30/62/14 29/63/14 21/64/14
f 20/65/15 28/66/15 27/67/15 19/68/15
f 18/69/16 26/70/16 25/71/16 17/72/16
f 17/72/17 25/71/17 32/58/17 24/57/17
f 23/60/18 31/59/18 30/62/18 22/61/18
f 21/64/19 29/63/19 28/66/19 20/65/19
f 19/73/20 27/74/20 26/75/20 18/76/20
f 23/60/12 22/61/12 69/77/12 70/78/12
f 17/72/12 24/57/12 71/79/12 64/80/12
f 18/69/12 17/72/12 64/80/12 65/81/12
f 20/65/12 19/68/12 66/82/12 67/83/12
f 22/61/12 21/64/12 68/84/12 69/77/12
f 24/57/12 23/60/12 70/78/12 71/79/12
f 36/85/21 43/86/21 42/87/21 35/88/21
f 34/89/22 39/90/22 38/91/22 33/92/22
f 33/92/23 38/91/23 45/93/23 37/94/23
f 37/94/24 45/93/24 44/95/24 31/96/24
f 47/97/25 41/98/25 40/99/25 46/100/25
f 31/96/26 44/95/26 43/86/26 36/85/26
f 35/88/27 42/87/27 41/98/27 47/97/27
f 46/100/28 40/99/28 39/90/28 34/89/28
f 44/95/11 45/93/11 55/101/11 54/102/11
f 42/87/11 43/86/11 53/103/11 52/104/11
f 40/99/11 41/98/11 51/105/11 50/106/11
f 38/91/11 39/90/11 49/107/11 48/108/11
f 45/93/11 38/91/11 48/108/11 55/101/11
f 43/86/11 44/95/11 54/102/11 53/103/11
f 41/98/11 42/87/11 52/104/11 51/105/11
f 39/90/11 40/99/11 50/106/11 49/107/11
f 53/103/28 54/102/28 62/109/28 61/110/28
f 51/105/23 52/104/23 60/111/23 59/112/23
f 49/107/26 50/106/26 58/113/26 57/114/26
f 54/102/25 55/101/25 63/115/25 62/109/25
f 52/104/22 53/103/22 61/110/22 60/111/22
f 50/106/24 51/105/24 59/112/24 58/113/24
f 48/108/21 49/107/21 57/114/21 56/116/21
f 55/101/27 48/108/27 56/116/27 63/115/27
f 21/64/12 20/65/12 67/83/12 68/84/12
f 19/68/12 18/69/12 65/81/12 66/82/12
f 70/78/20 69/77/20 77/117/20 78/118/20
f 65/81/14 64/80/14 72/119/14 73/120/14
f 67/83/13 66/82/13 74/121/13 75/122/13
f 69/77/16 68/84/16 76/123/16 77/117/16
f 71/79/15 70/78/15 78/118/15 79/124/15
f 66/82/18 65/81/18 73/120/18 74/121/18
f 68/84/17 67/83/17 75/122/17 76/123/17
f 64/80/19 71/79/19 79/124/19 72/119/19
f 25/71/29 26/70/29 81/125/29 80/126/29
f 32/58/30 25/71/30 80/126/30 87/127/30
f 30/62/31 31/59/31 86/128/31 85/129/31
f 28/66/32 29/63/32 84/130/32 83/131/32
f 26/70/33 27/67/33 82/132/33 81/125/33
f 31/59/34 32/58/34 87/127/34 86/128/34
f 29/63/35 30/62/35 85/129/35 84/130/35
f 27/67/36 28/66/36 83/131/36 82/132/36
f 87/127/37 80/126/37 88/133/37 95/134/37
f 85/129/38 86/128/38 94/135/38 93/136/38
f 83/131/39 84/130/39 92/137/39 91/138/39
f 81/125/40 82/132/40 90/139/40 89/140/40
f 86/128/41 87/127/41 95/134/41 94/135/41
f 84/130/42 85/129/42 93/136/42 92/137/42
f 82/132/43 83/131/43 91/138/43 90/139/43
f 80/126/44 81/125/44 89/140/44 88/133/44
f 90/139/45 91/138/45 99/141/45 98/142/45
f 88/133/46 89/140/46 97/143/46 96/144/46
f 95/134/47 88/133/47 96/144/47 103/145/47
f 93/136/48 94/135/48 102/146/48 101/147/48
f 91/138/49 92/137/49 100/148/49 99/141/49
f 89/140/50 90/139/50 98/142/50 97/143/50
f 94/135/51 95/134/51 103/145/51 102/146/51
f 92/137/52 93/136/52 101/147/52 100/148/52
f 102/146/53 103/145/53 111/149/53 110/150/53
f 100/148/54 101/147/54 109/151/54 108/152/54
f 98/142/55 99/141/55 107/153/55 106/154/55
f 96/144/56 97/143/56 105/155/56 104/156/56
f 103/145/57 96/144/57 104/156/57 111/149/57
f 101/147/58 102/146/58 110/150/58 109/151/58
f 99/141/59 100/148/59 108/152/59 107/153/59
f 97/143/60 98/142/60 106/154/60 105/155/60
f 107/153/61 108/152/61 116/157/61 115/158/61
f 105/155/62 106/154/62 114/159/62 113/160/62
f 110/150/63 111/149/63 119/161/63 118/162/63
f 108/152/64 109/151/64 117/163/64 116/157/64
f 106/154/65 107/153/65 115/158/65 114/159/65
f 104/156/66 105/155/66 113/160/66 112/164/66
f 111/149/67 104/156/67 112/164/67 119/161/67
f 109/151/68 110/150/68 118/162/68 117/163/68
f 119/161/69 112/164/69 120/165/69 127/166/69
f 117/163/70 118/162/70 126/167/70 125/168/70
f 115/158/71 116/157/71 124/169/71 123/170/71
f 113/160/72 114/159/72 122/171/72 121/172/72
f 118/162/73 119/161/73 127/166/73 126/167/73
f 116/157/74 117/163/74 125/168/74 124/169/74
f 114/159/75 115/158/75 123/170/75 122/171/75
f 112/164/76 113/160/76 121/172/76 120/165/76
g s2_pipebend
v 0.249999 0.530000 0.000000
v 0.405562 0.594436 0.000000
v 0.469999 0.750000 0.000000
v 0.405562 0.905563 0.000000
v 0.249999 0.970000 0.000000
v 0.094435 0.905563 0.000000
v 0.029999 0.750000 0.000000
v 0.094435 0.594436 0.000000
v 0.249999 0.530000 0.030000
v 0.405562 0.594436 0.030000
v 0.469999 0.750000 0.030000
v 0.405562 0.905563 0.030000
v 0.249999 0.970000 0.030000
v 0.094435 0.905563 0.030000
v 0.029999 0.750000 0.030000
v 0.094435 0.594436 0.030000
v 0.029999 0.530000 0.250000
v 0.029999 0.594436 0.405563
v 0.029999 0.970000 0.250000
v 0.029999 0.905563 0.094436
v 0.029999 0.594436 0.094436
v -0.000001 0.530000 0.250000
v -0.000001 0.594436 0.405564
v -0.000001 0.750000 0.470000
v -0.000001 0.905563 0.405563
v -0.000001 0.970000 0.250000
v -0.000001 0.905563 0.094436
v -0.000001 0.750000 0.030000
v -0.000001 0.594436 0.094436
v 0.029999 0.750000 0.470000
v 0.029999 0.905563 0.405563
v -0.000001 0.569164 0.250000
v -0.000001 0.622130 0.377870
v -0.000001 0.750000 0.430836
v -0.000001 0.877870 0.377870
v -0.000001 0.930835 0.250000
v -0.000001 0.877870 0.122130
v -0.000001 0.750000 0.069164
v -0.000001 0.622130 0.122130
v 0.029999 0.569164 0.250000
v 0.029999 0.622130 0.377870
v 0.029999 0.750000 0.430836
v 0.029999 0.877870 0.377870
v 0.029999 0.930835 0.250000
v 0.029999 0.877870 0.122130
v 0.029999 0.750000 0.069164
v 0.029999 0.622130 0.122130
v 0.249999 0.557658 0.000000
v 0.386005 0.613994 0.000000
v 0.442341 0.750000 0.000000
v 0.386005 0.886006 0.000000
v 0.249999 0.942341 0.000000
v 0.113993 0.886006 0.000000
v 0.057657 0.750000 0.000000
v 0.113993 0.613994 0.000000
v 0.249999 0.557658 0.030000
v 0.386005 0.613994 0.030000
v 0.442341 0.750000 0.030000
v 0.386005 0.886006 0.030000
v 0.249999 0.942341 0.030000
v 0.113993 0.886006 0.030000
v 0.057657 0.750000 0.030000
v 0.113993 0.613994 0.030000
v 0.242737 0.530000 0.086065
v 0.393000 0.594436 0.126327
v 0.455241 0.750000 0.143005
v 0.393000 0.905563 0.126327
v 0.242737 0.970000 0.086065
v 0.092474 0.905563 0.045802
v 0.030234 0.750000 0.029125
v 0.092474 0.594436 0.045802
v 0.220978 0.530000 0.139215
v 0.355700 0.594436 0.216997
v 0.411503 0.750000 0.249215
v 0.355700 0.905563 0.216997
v 0.220978 0.970000 0.139215
v 0.086256 0.905563 0.061433
v 0.030452 0.750000 0.029215
v 0.086256 0.594436 0.061433
v 0.186203 0.530000 0.184923
v 0.296203 0.594436 0.294923
v 0.341767 0.750000 0.340486
v 0.296203 0.905563 0.294923
v 0.186203 0.970000 0.184923
v 0.076203 0.905563 0.074923
v 0.030640 0.750000 0.029359
v 0.076203 0.594436 0.074923
v 0.140784 0.530000 0.220072
v 0.218566 0.594436 0.354794
v 0.250784 0.750000 0.410598
v 0.218566 0.905563 0.354794
v 0.140784 0.970000 0.220072
v 0.063002 0.905563 0.085350
v 0.030784 0.750000 0.029547
v 0.063002 0.594436 0.085350
v 0.087815 0.530000 0.242269
v 0.128077 0.594436 0.392532
v 0.144755 0.750000 0.454773
v 0.128077 0.905563 0.392532
v 0.087815 0.970000 0.242269
v 0.047552 0.905563 0.092006
v 0.030874 0.750000 0.029765
v 0.047552 0.594436 0.092006
v 0.030030 0.530000 0.249765
v 0.030030 0.594436 0.405329
v 0.030030 0.750000 0.469765
v 0.030030 0.905563 0.405329
v 0.030030 0.970000 0.249765
v 0.030030 0.905563 0.094202
v 0.030030 0.750000 0.029765
v 0.030030 0.594436 0.094202
vt 0.159965 0.174725
vt 0.490675 0.037741
vt 0.821385 0.174725
vt 0.958369 0.505435
vt 0.821385 0.836145
vt 0.022980 0.505435
vt 0.490675 0.973130
vt 0.159965 0.836145
vt 0.813777 0.183676
vt 0.945850 0.502527
vt 0.494926 0.051604
vt 0.494926 0.953451
vt 0.176075 0.183676
vt 0.813777 0.821378
vt 0.044003 0.502527
vt 0.176075 0.821378
vt 0.274775 0.199144
vt 0.254152 0.197397
vt 0.310435 0.116660
vt 0.318312 0.132710
vt 0.397839 0.127506
vt 0.409532 0.109738
vt 0.442698 0.189733
vt 0.430589 0.190582
vt 0.420111 0.237961
vt 0.427331 0.242345
vt 0.397258 0.271566
vt 0.394015 0.264672
vt 0.356047 0.271083
vt 0.355362 0.279585
vt 0.302593 0.266042
vt 0.310003 0.257047
vt 0.257919 0.046524
vt 0.296837 0.124273
vt 0.084574 0.444434
vt 0.009383 0.431234
vt 0.390643 0.139756
vt 0.324535 0.144250
vt 0.288686 0.200208
vt 0.315763 0.250382
vt 0.356786 0.264351
vt 0.391406 0.259316
vt 0.414196 0.234763
vt 0.421325 0.191916
vt 0.233030 0.461845
vt 0.282539 0.484692
vt 0.287841 0.728571
vt 0.237192 0.748722
vt 0.941349 0.745217
vt 0.891789 0.722609
vt 0.882316 0.479275
vt 0.932722 0.459325
vt 0.703267 0.308984
vt 0.725768 0.259374
vt 0.455823 0.310667
vt 0.437303 0.259373
vt 0.449060 0.942003
vt 0.470812 0.892561
vt 0.718818 0.894282
vt 0.736744 0.945685
vt 0.680671 0.362431
vt 0.476866 0.364564
vt 0.335362 0.507290
vt 0.340350 0.705597
vt 0.493150 0.838757
vt 0.698490 0.840399
vt 0.839107 0.700634
vt 0.829263 0.501988
vt 0.495909 0.404228
vt 0.376468 0.521297
vt 0.378315 0.684823
vt 0.506956 0.796229
vt 0.680235 0.800637
vt 0.798200 0.687415
vt 0.666707 0.404422
vt 0.790562 0.522629
vt 0.384899 0.152820
vt 0.332016 0.155639
vt 0.321970 0.242679
vt 0.357511 0.256471
vt 0.388128 0.253672
vt 0.407407 0.232083
vt 0.411739 0.194651
vt 0.303032 0.200243
vt 0.355772 0.308884
vt 0.288488 0.286129
vt 0.241715 0.196573
vt 0.309503 0.115003
vt 0.415558 0.098509
vt 0.467548 0.188125
vt 0.451103 0.258101
vt 0.411014 0.297240
vt 0.267852 0.310396
vt 0.227864 0.195067
vt 0.308540 0.113293
vt 0.421724 0.085658
vt 0.499536 0.183418
vt 0.484798 0.278317
vt 0.430658 0.333564
vt 0.354599 0.348450
vt 0.534166 0.303933
vt 0.459000 0.385846
vt 0.349436 0.403722
vt 0.237317 0.338752
vt 0.212823 0.192125
vt 0.307523 0.111489
vt 0.427274 0.070978
vt 0.540501 0.172615
vt 0.196840 0.187226
vt 0.306442 0.109573
vt 0.431638 0.054395
vt 0.593310 0.150483
vt 0.610418 0.336444
vt 0.501529 0.464411
vt 0.335360 0.484857
vt 0.191119 0.370725
vt 0.661589 0.107301
vt 0.738194 0.377620
vt 0.568283 0.588220
vt 0.300318 0.613076
vt 0.181498 0.180491
vt 0.305287 0.107530
vt 0.434096 0.037340
vt 0.119472 0.404022
vt 0.009288 0.416103
vt 0.167442 0.169311
vt 0.303965 0.105204
vt 0.431992 0.018984
vt 0.733636 0.018984
vt 0.990747 0.392590
vt 0.736824 0.901946
vt 0.175591 0.829135
vn -1.000000 0.000000 0.000000
vn 0.000000 0.000000 -1.000000
vn -0.923877 -0.382690 0.000000
vn -0.382690 0.923877 0.000000
vn 0.923877 0.382690 0.000000
vn 0.382690 -0.923877 0.000000
vn -0.382690 -0.923877 0.000000
vn -0.923877 0.382690 0.000000
vn 0.382690 0.923877 0.000000
vn 0.923877 -0.382690 0.000000
vn 0.000000 0.923877 -0.382690
vn 0.000000 -0.923877 0.382690
vn 0.000000 -0.923877 -0.382690
vn 0.000000 -0.382690 -0.923877
vn 0.000000 0.382690 0.923877
vn 0.000000 0.382690 -0.923877
vn 0.000000 0.923877 0.382690
vn 0.000000 -0.382690 0.923877
vn 0.382300 -0.922701 0.049700
vn -0.382397 -0.922693 -0.049100
vn -0.918934 0.379814 -0.106304
vn 0.382300 0.922701 0.049700
vn 0.917258 -0.379883 0.119695
vn -0.918934 -0.379814 -0.106304
vn -0.382397 0.922693 -0.049100
vn 0.917258 0.379883 0.119695
vn -0.357099 -0.922696 -0.145299
vn -0.864287 0.379794 -0.329795
vn 0.356605 0.922713 0.146402
vn 0.855397 -0.379899 0.352099
vn -0.864287 -0.379794 -0.329795
vn -0.357099 0.922696 -0.145299
vn 0.855397 0.379899 0.352099
vn 0.356605 -0.922713 0.146402
vn 0.735108 0.379904 0.561506
vn 0.306510 -0.922731 0.233708
vn -0.307306 -0.922719 -0.232705
vn -0.749467 0.379783 -0.542276
vn 0.306510 0.922731 0.233708
vn 0.735108 -0.379904 0.561506
vn -0.749467 -0.379783 -0.542276
vn -0.307306 0.922719 -0.232705
vn -0.583578 -0.379786 -0.717774
vn -0.236606 0.922722 -0.304307
vn 0.564793 0.379895 0.732591
vn 0.235604 -0.922714 0.305105
vn -0.236606 -0.922722 -0.304307
vn -0.583578 0.379786 -0.717774
vn 0.235604 0.922714 0.305105
vn 0.564793 -0.379895 0.732591
vn 0.148602 0.922709 0.355704
vn 0.355907 -0.379907 0.853816
vn -0.377887 -0.379787 -0.844371
vn -0.149801 0.922708 -0.355203
vn 0.355907 0.379907 0.853816
vn 0.148602 -0.922709 0.355704
vn -0.149801 -0.922708 -0.355203
vn -0.377887 0.379787 -0.844371
vn -0.049201 -0.922723 -0.382310
vn -0.109799 0.379896 -0.918490
vn 0.049800 0.922696 0.382298
vn 0.119804 -0.379913 0.917231
vn -0.109799 -0.379896 -0.918490
vn -0.049201 0.922723 -0.382310
vn 0.119804 0.379913 0.917231
vn 0.049800 -0.922696 0.382298
usemtl pipebend_None
s off
f 172/173/77 173/174/77 174/175/77
f 174/175/77 167/176/77 172/173/77
f 167/176/77 168/177/77 171/178/77
f 167/176/77 171/178/77 172/173/77
f 169/179/77 170/180/77 168/177/77
f 168/177/77 170/180/77 171/178/77
f 190/181/78 189/182/78 183/183/78
f 189/182/78 187/184/78 184/185/78
f 188/186/78 187/184/78 189/182/78
f 187/184/78 185/187/78 184/185/78
f 189/182/78 184/185/78 183/183/78
f 187/184/78 186/188/78 185/187/78
usemtl pipebend_None_plain
f 135/189/79 143/190/79 142/191/79 134/192/79
f 133/193/80 141/194/80 140/195/80 132/196/80
f 131/197/81 139/198/81 138/199/81 130/200/81
f 129/201/82 137/202/82 136/203/82 128/204/82
f 128/204/83 136/203/83 143/190/83 135/189/83
f 134/192/84 142/191/84 141/194/84 133/193/84
f 132/196/85 140/195/85 139/198/85 131/197/85
f 130/205/86 138/206/86 137/207/86 129/208/86
f 134/192/78 133/193/78 180/209/78 181/210/78
f 128/204/78 135/189/78 182/211/78 175/212/78
f 129/201/78 128/204/78 175/212/78 176/213/78
f 131/197/78 130/200/78 177/214/78 178/215/78
f 133/193/78 132/196/78 179/216/78 180/209/78
f 135/189/78 134/192/78 181/210/78 182/211/78
f 147/217/87 154/218/87 153/219/87 146/220/87
f 145/221/88 150/222/88 149/223/88 144/224/88
f 144/224/89 149/223/89 156/225/89 148/226/89
f 148/226/90 156/225/90 155/227/90 142/228/90
f 158/229/91 152/230/91 151/231/91 157/232/91
f 142/228/92 155/227/92 154/218/92 147/217/92
f 146/220/93 153/219/93 152/230/93 158/229/93
f 157/232/94 151/231/94 150/222/94 145/221/94
f 155/227/77 156/225/77 166/233/77 165/234/77
f 153/219/77 154/218/77 164/235/77 163/236/77
f 151/231/77 152/230/77 162/237/77 161/238/77
f 149/223/77 150/222/77 160/239/77 159/240/77
f 156/225/77 149/223/77 159/240/77 166/233/77
f 154/218/77 155/227/77 165/234/77 164/235/77
f 152/230/77 153/219/77 163/236/77 162/237/77
f 150/222/77 151/231/77 161/238/77 160/239/77
f 164/235/94 165/234/94 173/241/94 172/242/94
f 162/237/89 163/236/89 171/243/89 170/244/89
f 160/239/92 161/238/92 169/245/92 168/246/92
f 165/234/91 166/233/91 174/247/91 173/241/91
f 163/236/88 164/235/88 172/242/88 171/243/88
f 161/238/90 162/237/90 170/244/90 169/245/90
f 159/240/87 160/239/87 168/246/87 167/248/87
f 166/233/93 159/240/93 167/248/93 174/247/93
f 132/196/78 131/197/78 178/215/78 179/216/78
f 130/200/78 129/201/78 176/213/78 177/214/78
f 181/210/86 180/209/86 188/249/86 189/250/86
f 176/213/80 175/212/80 183/251/80 184/252/80
f 178/215/79 177/214/79 185/253/79 186/254/79
f 180/209/82 179/216/82 187/255/82 188/249/82
f 182/211/81 181/210/81 189/250/81 190/256/81
f 177/214/84 176/213/84 184/252/84 185/253/84
f 179/216/83 178/215/83 186/254/83 187/255/83
f 175/212/85 182/211/85 190/256/85 183/251/85
f 136/203/95 137/202/95 192/257/95 191/258/95
f 143/190/96 136/203/96 191/258/96 198/259/96
f 141/194/97 142/191/97 197/260/97 196/261/97
f 139/198/98 140/195/98 195/262/98 194/263/98
f 137/202/99 138/199/99 193/264/99 192/257/99
f 142/191/100 143/190/100 198/259/100 197/260/100
f 140/195/101 141/194/101 196/261/101 195/262/101
f 138/199/102 139/198/102 194/263/102 193/264/102
f 198/259/103 191/258/103 199/265/103 206/266/103
f 196/261/104 197/260/104 205/267/104 204/268/104
f 194/263/105 195/262/105 203/269/105 202/270/105
f 192/257/106 193/264/106 201/271/106 200/272/106
f 197/260/107 198/259/107 206/266/107 205/267/107
f 195/262/108 196/261/108 204/268/108 203/269/108
f 193/264/109 194/263/109 202/270/109 201/271/109
f 191/258/110 192/257/110 200/272/110 199/265/110
f 201/271/111 202/270/111 210/273/111 209/274/111
f 199/265/112 200/272/112 208/275/112 207/276/112
f 206/266/113 199/265/113 207/276/113 214/277/113
f 204/268/114 205/267/114 213/278/114 212/279/114
f 202/270/115 203/269/115 211/280/115 210/273/115
f 200/272/116 201/271/116 209/274/116 208/275/116
f 205/267/117 206/266/117 214/277/117 213/278/117
f 203/269/118 204/268/118 212/279/118 211/280/118
f 213/278/119 214/277/119 222/281/119 221/282/119
f 211/280/120 212/279/120 220/283/120 219/284/120
f 209/274/121 210/273/121 218/285/121 217/286/121
f 207/276/122 208/275/122 216/287/122 215/288/122
f 214/277/123 207/276/123 215/288/123 222/281/123
f 212/279/124 213/278/124 221/282/124 220/283/124
f 210/273/125 211/280/125 219/284/125 218/285/125
f 208/275/126 209/274/126 217/286/126 216/287/126
f 218/285/127 219/284/127 227/289/127 226/290/127
f 216/287/128 217/286/128 225/291/128 224/292/128
f 221/282/129 222/281/129 230/293/129 229/294/129
f 219/284/130 220/283/130 228/295/130 227/289/130
f 217/286/131 218/285/131 226/290/131 225/291/131
f 215/288/132 216/287/132 224/292/132 223/296/132
f 222/281/133 215/288/133 223/296/133 230/293/133
f 220/283/134 221/282/134 229/294/134 228/295/134
f 230/293/135 223/296/135 231/297/135 238/298/135
f 228/295/136 229/294/136 237/299/136 236/300/136
f 226/290/137 227/289/137 235/301/137 234/302/137
f 224/292/138 225/291/138 233/303/138 232/304/138
f 229/294/139 230/293/139 238/298/139 237/299/139
f 227/289/140 228/295/140 236/300/140 235/301/140
f 225/291/141 226/290/141 234/302/141 233/303/141
f 223/296/142 224/292/142 232/304/142 231/297/142
g s3_pipe
v 0.530000 0.500000 0.249999
v 0.594436 0.500000 0.405562
v 0.750000 0.500000 0.469999
v 0.905563 0.500000 0.405562
v 0.970000 0.500000 0.249999
v 0.905563 0.500000 0.094435
v 0.750000 0.500000 0.029999
v 0.594436 0.500000 0.094435
v 0.530000 1.000000 0.249999
v 0.594436 1.000000 0.405562
v 0.750000 1.000000 0.469999
v 0.905563 1.000000 0.405562
v 0.970000 1.000000 0.249999
v 0.905563 1.000000 0.094435
v 0.750000 1.000000 0.029999
v 0.594436 1.000000 0.094435
vt 0.816951 0.018980
vt 0.816951 0.981912
vt 0.517357 0.981912
vt 0.517357 0.018980
vt 0.851252 0.017074
vt 0.851252 0.983818
vt 0.550471 0.983818
vt 0.550471 0.017074
vt 0.217762 0.018980
vt 0.217762 0.981912
vt 0.517357 0.981912
vt 0.517357 0.018980
vt 0.249691 0.017074
vt 0.249691 0.983818
vt 0.550471 0.983818
vt 0.550471 0.017074
vt 0.851252 0.983818
vt 0.851252 0.017074
vt 0.217762 0.981912
vt 0.217762 0.018980
vt 0.249691 0.983818
vt 0.249691 0.017074
vt 0.816951 0.981912
vt 0.816951 0.018980
vt 0.833993 0.844330
vt 0.494974 0.984756
vt 0.155956 0.844330
vt 0.974419 0.505312
vt 0.015530 0.505312
vt 0.494974 0.025867
vt 0.155956 0.166293
vt 0.833993 0.166293
vt 0.820102 0.179229
vt 0.190314 0.179229
vt 0.505208 0.048795
vt 0.950535 0.494123
vt 0.059880 0.494123
vt 0.820102 0.809016
vt 0.190314 0.809016
vt 0.505208 0.939450
vn -0.382690 0.000000 -0.923877
vn 0.923877 0.000000 -0.382690
vn 0.382690 0.000000 0.923877
vn -0.923877 0.000000 0.382690
vn -0.923877 0.000000 -0.382690
vn 0.382690 0.000000 -0.923877
vn 0.923877 0.000000 0.382690
vn -0.382690 0.000000 0.923877
vn 0.000000 1.000000 0.000000
vn 0.000000 -1.000000 0.000000
usemtl pipe_None
s off
f 246/305/143 254/306/143 253/307/143 245/308/143
f 244/309/144 252/310/144 251/311/144 243/312/144
f 242/313/145 250/314/145 249/315/145 241/316/145
f 240/317/146 248/318/146 247/319/146 239/320/146
f 239/320/147 247/319/147 254/321/147 246/322/147
f 245/308/148 253/307/148 252/323/148 244/324/148
f 243/312/149 251/311/149 250/325/149 242/326/149
f 241/316/150 249/315/150 248/327/150 240/328/150
f 254/329/151 247/330/151 248/331/151
f 253/332/151 254/329/151 248/331/151
f 253/332/151 248/331/151 249/333/151
f 249/333/151 251/334/151 253/332/151
f 250/335/151 251/334/151 249/333/151
f 251/334/151 252/336/151 253/332/151
f 246/337/152 240/338/152 239/339/152
f 245/340/152 240/338/152 246/337/152
f 245/340/152 241/341/152 240/338/152
f 244/342/152 241/341/152 245/340/152
f 244/342/152 242/343/152 241/341/152
f 243/344/152 242/343/152 244/342/152
g s4_pipebend
v 0.470000 0.500000 0.749999
v 0.405564 0.500000 0.905562
v 0.250000 0.500000 0.969999
v 0.094437 0.500000 0.905562
v 0.030000 0.500000 0.749999
v 0.094437 0.500000 0.594435
v 0.250000 0.500000 0.529999
v 0.405564 0.500000 0.594435
v 0.470000 0.470000 0.749999
v 0.405564 0.470000 0.905562
v 0.250000 0.470000 0.969999
v 0.094437 0.470000 0.905562
v 0.030000 0.470000 0.749999
v 0.094437 0.470000 0.594435
v 0.250000 0.470000 0.529999
v 0.405564 0.470000 0.594435
v 0.470000 0.250000 0.529999
v 0.405564 0.094437 0.529999
v 0.030000 0.250000 0.529999
v 0.094437 0.405564 0.529999
v 0.405564 0.405564 0.529999
v 0.470000 0.250000 0.499999
v 0.405564 0.094436 0.499999
v 0.250000 0.030000 0.499999
v 0.094437 0.094437 0.499999
v 0.030000 0.250000 0.499999
v 0.094437 0.405564 0.499999
v 0.250000 0.470000 0.499999
v 0.405564 0.405564 0.499999
v 0.250000 0.030000 0.529999
v 0.094437 0.094437 0.529999
v 0.430836 0.250000 0.499999
v 0.377870 0.122130 0.499999
v 0.250000 0.069164 0.499999
v 0.122130 0.122130 0.499999
v 0.069165 0.250000 0.499999
v 0.122130 0.377870 0.499999
v 0.250000 0.430836 0.499999
v 0.377870 0.377870 0.499999
v 0.430836 0.250000 0.529999
v 0.377870 0.122130 0.529999
v 0.250000 0.069164 0.529999
v 0.122130 0.122130 0.529999
v 0.069165 0.250000 0.529999
v 0.122130 0.377870 0.529999
v 0.250000 0.430836 0.529999
v 0.377870 0.377870 0.529999
v 0.442342 0.500000 0.749999
v 0.386006 0.500000 0.886005
v 0.250000 0.500000 0.942341
v 0.113994 0.500000 0.886005
v 0.057659 0.500000 0.749999
v 0.113994 0.500000 0.613993
v 0.250000 0.500000 0.557657
v 0.386006 0.500000 0.613993
v 0.442342 0.470000 0.749999
v 0.386006 0.470000 0.886005
v 0.250000 0.470000 0.942341
v 0.113994 0.470000 0.886005
v 0.057659 0.470000 0.749999
v 0.113994 0.470000 0.613993
v 0.250000 0.470000 0.557657
v 0.386006 0.470000 0.613993
v 0.470000 0.413935 0.742737
v 0.405564 0.373673 0.893000
v 0.250000 0.356995 0.955241
v 0.094437 0.373673 0.893000
v 0.030000 0.413935 0.742737
v 0.094437 0.454198 0.592474
v 0.250000 0.470875 0.530234
v 0.405564 0.454198 0.592474
v 0.470000 0.360785 0.720978
v 0.405564 0.283003 0.855700
v 0.250000 0.250785 0.911503
v 0.094437 0.283003 0.855700
v 0.030000 0.360785 0.720978
v 0.094437 0.438567 0.586256
v 0.250000 0.470785 0.530452
v 0.405564 0.438567 0.586256
v 0.470000 0.315077 0.686203
v 0.405564 0.205077 0.796203
v 0.250000 0.159514 0.841767
v 0.094437 0.205077 0.796203
v 0.030000 0.315077 0.686203
v 0.094437 0.425077 0.576203
v 0.250000 0.470641 0.530640
v 0.405564 0.425077 0.576203
v 0.470000 0.279928 0.640784
v 0.405564 0.145206 0.718566
v 0.250000 0.089402 0.750784
v 0.094437 0.145206 0.718566
v 0.030000 0.279928 0.640784
v 0.094437 0.414650 0.563002
v 0.250000 0.470453 0.530784
v 0.405564 0.414650 0.563002
v 0.470000 0.257731 0.587815
v 0.405564 0.107468 0.628077
v 0.250000 0.045227 0.644755
v 0.094437 0.107468 0.628077
v 0.030000 0.257731 0.587815
v 0.094437 0.407994 0.547552
v 0.250000 0.470235 0.530874
v 0.405564 0.407994 0.547552
v 0.470000 0.250235 0.530030
v 0.405564 0.094671 0.530030
v 0.250000 0.030235 0.530030
v 0.094437 0.094671 0.530030
v 0.030000 0.250235 0.530030
v 0.094437 0.405798 0.530030
v 0.250000 0.470235 0.530030
v 0.405564 0.405798 0.530030
vt 0.159965 0.174725
vt 0.490675 0.037741
vt 0.821385 0.174725
vt 0.958369 0.505435
vt 0.821385 0.836145
vt 0.022980 0.505435
vt 0.490675 0.973130
vt 0.159965 0.836145
vt 0.813777 0.183676
vt 0.945850 0.502527
vt 0.494926 0.051604
vt 0.494926 0.953451
vt 0.176075 0.183676
vt 0.813777 0.821378
vt 0.044003 0.502527
vt 0.176075 0.821378
vt 0.274775 0.199144
vt 0.254152 0.197397
vt 0.310435 0.116660
vt 0.318312 0.132710
vt 0.397839 0.127506
vt 0.409532 0.109738
vt 0.442698 0.189733
vt 0.430589 0.190582
vt 0.420111 0.237961
vt 0.427331 0.242345
vt 0.397258 0.271566
vt 0.394015 0.264672
vt 0.356047 0.271083
vt 0.355362 0.279585
vt 0.302593 0.266042
vt 0.310003 0.257047
vt 0.257919 0.046524
vt 0.296837 0.124273
vt 0.084574 0.444434
vt 0.009383 0.431234
vt 0.390643 0.139756
vt 0.324535 0.144250
vt 0.288686 0.200208
vt 0.315763 0.250382
vt 0.356786 0.264351
vt 0.391406 0.259316
vt 0.414196 0.234763
vt 0.421325 0.191916
vt 0.233030 0.461845
vt 0.282539 0.484692
vt 0.287841 0.728571
vt 0.237192 0.748722
vt 0.941349 0.745217
vt 0.891789 0.722609
vt 0.882316 0.479275
vt 0.932722 0.459325
vt 0.703267 0.308984
vt 0.725768 0.259374
vt 0.455823 0.310667
vt 0.437303 0.259373
vt 0.449060 0.942003
vt 0.470812 0.892561
vt 0.718818 0.894282
vt 0.736744 0.945685
vt 0.680671 0.362431
vt 0.476866 0.364564
vt 0.335362 0.507290
vt 0.340350 0.705597
vt 0.493150 0.838757
vt 0.698490 0.840399
vt 0.839107 0.700634
vt 0.829263 0.501988
vt 0.495909 0.404228
vt 0.376468 0.521297
vt 0.378315 0.684823
vt 0.506956 0.796229
vt 0.680235 0.800637
vt 0.798200 0.687415
vt 0.666707 0.404422
vt 0.790562 0.522629
vt 0.384899 0.152820
vt 0.332016 0.155639
vt 0.321970 0.242679
vt 0.357511 0.256471
vt 0.388128 0.253672
vt 0.407407 0.232083
vt 0.411739 0.194651
vt 0.303032 0.200243
vt 0.355772 0.308884
vt 0.288488 0.286129
vt 0.241715 0.196573
vt 0.309503 0.115003
vt 0.415558 0.098509
vt 0.467548 0.188125
vt 0.451103 0.258101
vt 0.411014 0.297240
vt 0.267852 0.310396
vt 0.227864 0.195067
vt 0.308540 0.113293
vt 0.421724 0.085658
vt 0.499536 0.183418
vt 0.484798 0.278317
vt 0.430658 0.333564
vt 0.354599 0.348450
vt 0.534166 0.303933
vt 0.459000 0.385846
vt 0.349436 0.403722
vt 0.237317 0.338752
vt 0.212823 0.192125
vt 0.307523 0.111489
vt 0.427274 0.070978
vt 0.540501 0.172615
vt 0.196840 0.187226
vt 0.306442 0.109573
vt 0.431638 0.054395
vt 0.593310 0.150483
vt 0.610418 0.336444
vt 0.501529 0.464411
vt 0.335360 0.484857
vt 0.191119 0.370725
vt 0.661589 0.107301
vt 0.738194 0.377620
vt 0.568283 0.588220
vt 0.300318 0.613076
vt 0.181498 0.180491
vt 0.305287 0.107530
vt 0.434096 0.037340
vt 0.119472 0.404022
vt 0.009288 0.416103
vt 0.167442 0.169311
vt 0.303965 0.105204
vt 0.431992 0.018984
vt 0.733636 0.018984
vt 0.990747 0.392590
vt 0.736824 0.901946
vt 0.175591 0.829135
vn 0.000000 -0.000000 -1.000000
vn 0.000000 1.000000 -0.000000
vn 0.382690 0.000000 -0.923877
vn -0.923877 -0.000000 -0.382690
vn -0.382690 -0.000000 0.923877
vn 0.923877 0.000000 0.382690
vn 0.923877 0.000000 -0.382690
vn -0.382690 -0.000000 -0.923877
vn -0.923877 -0.000000 0.382690
vn 0.382690 0.000000 0.923877
vn -0.923877 0.382690 -0.000000
vn 0.923877 -0.382690 0.000000
vn 0.923877 0.382690 0.000000
vn 0.382690 0.923877 0.000000
vn -0.382690 -0.923877 0.000000
vn -0.382690 0.923877 -0.000000
vn -0.923877 -0.382690 -0.000000
vn 0.382690 -0.923877 0.000000
vn 0.922701 -0.049700 0.382300
vn 0.922693 0.049100 -0.382397
vn -0.379814 0.106304 -0.918934
vn -0.922701 -0.049700 0.382300
vn 0.379883 -0.119695 0.917258
vn 0.379814 0.106304 -0.918934
vn -0.922693 0.049100 -0.382397
vn -0.379883 -0.119695 0.917258
vn 0.922696 0.145299 -0.357099
vn -0.379794 0.329795 -0.864287
vn -0.922713 -0.146402 0.356605
vn 0.379899 -0.352099 0.855397
vn 0.379794 0.329795 -0.864287
vn -0.922696 0.145299 -0.357099
vn -0.379899 -0.352099 0.855397
vn 0.922713 -0.146402 0.356605
vn -0.379904 -0.561506 0.735108
vn 0.922731 -0.233708 0.306510
vn 0.922719 0.232705 -0.307306
vn -0.379783 0.542276 -0.749467
vn -0.922731 -0.233708 0.306510
vn 0.379904 -0.561506 0.735108
vn 0.379783 0.542276 -0.749467
vn -0.922719 0.232705 -0.307306
vn 0.379786 0.717774 -0.583578
vn -0.922722 0.304307 -0.236606
vn -0.379895 -0.732591 0.564793
vn 0.922714 -0.305105 0.235604
vn 0.922722 0.304307 -0.236606
vn -0.379786 0.717774 -0.583578
vn -0.922714 -0.305105 0.235604
vn 0.379895 -0.732591 0.564793
vn -0.922709 -0.355704 0.148602
vn 0.379907 -0.853816 0.355907
vn 0.379787 0.844371 -0.377887
vn -0.922708 0.355203 -0.149801
vn -0.379907 -0.853816 0.355907
vn 0.922709 -0.355704 0.148602
vn 0.922708 0.355203 -0.149801
vn -0.379787 0.844371 -0.377887
vn 0.922723 0.382310 -0.049201
vn -0.379896 0.918490 -0.109799
vn -0.922696 -0.382298 0.049800
vn 0.379913 -0.917231 0.119804
vn 0.379896 0.918490 -0.109799
vn -0.922723 0.382310 -0.049201
vn -0.379913 -0.917231 0.119804
vn 0.922696 -0.382298 0.049800
usemtl pipebend_None
s off
f 299/345/153 300/346/153 301/347/153
f 301/347/153 294/348/153 299/345/153
f 294/348/153 295/349/153 298/350/153
f 294/348/153 298/350/153 299/345/153
f 296/351/153 297/352/153 295/349/153
f 295/349/153 297/352/153 298/350/153
f 317/353/154 316/354/154 310/355/154
f 316/354/154 314/356/154 311/357/154
f 315/358/154 314/356/154 316/354/154
f 314/356/154 312/359/154 311/357/154
f 316/354/154 311/357/154 310/355/154
f 314/356/154 313/360/154 312/359/154
usemtl pipebend_None_plain
f 262/361/155 270/362/155 269/363/155 261/364/155
f 260/365/156 268/366/156 267/367/156 259/368/156
f 258/369/157 266/370/157 265/371/157 257/372/157
f 256/373/158 264/374/158 263/375/158 255/376/158
f 255/376/159 263/375/159 270/362/159 262/361/159
f 261/364/160 269/363/160 268/366/160 260/365/160
f 259/368/161 267/367/161 266/370/161 258/369/161
f 257/377/162 265/378/162 264/379/162 256/380/162
f 261/364/154 260/365/154 307/381/154 308/382/154
f 255/376/154 262/361/154 309/383/154 302/384/154
f 256/373/154 255/376/154 302/384/154 303/385/154
f 258/369/154 257/372/154 304/386/154 305/387/154
f 260/365/154 259/368/154 306/388/154 307/381/154
f 262/361/154 261/364/154 308/382/154 309/383/154
f 274/389/163 281/390/163 280/391/163 273/392/163
f 272/393/164 277/394/164 276/395/164 271/396/164
f 271/396/165 276/395/165 283/397/165 275/398/165
f 275/398/166 283/397/166 282/399/166 269/400/166
f 285/401/167 279/402/167 278/403/167 284/404/167
f 269/400/168 282/399/168 281/390/168 274/389/168
f 273/392/169 280/391/169 279/402/169 285/401/169
f 284/404/170 278/403/170 277/394/170 272/393/170
f 282/399/153 283/397/153 293/405/153 292/406/153
f 280/391/153 281/390/153 291/407/153 290/408/153
f 278/403/153 279/402/153 289/409/153 288/410/153
f 276/395/153 277/394/153 287/411/153 286/412/153
f 283/397/153 276/395/153 286/412/153 293/405/153
f 281/390/153 282/399/153 292/406/153 291/407/153
f 279/402/153 280/391/153 290/408/153 289/409/153
f 277/394/153 278/403/153 288/410/153 287/411/153
f 291/407/170 292/406/170 300/413/170 299/414/170
f 289/409/165 290/408/165 298/415/165 297/416/165
f 287/411/168 288/410/168 296/417/168 295/418/168
f 292/406/167 293/405/167 301/419/167 300/413/167
f 290/408/164 291/407/164 299/414/164 298/415/164
f 288/410/166 289/409/166 297/416/166 296/417/166
f 286/412/163 287/411/163 295/418/163 294/420/163
f 293/405/169 286/412/169 294/420/169 301/419/169
f 259/368/154 258/369/154 305/387/154 306/388/154
f 257/372/154 256/373/154 303/385/154 304/386/154
f 308/382/162 307/381/162 315/421/162 316/422/162
f 303/385/156 302/384/156 310/423/156 311/424/156
f 305/387/155 304/386/155 312/425/155 313/426/155
f 307/381/158 306/388/158 314/427/158 315/421/158
f 309/383/157 308/382/157 316/422/157 317/428/157
f 304/386/160 303/385/160 311/424/160 312/425/160
f 306/388/159 305/387/159 313/426/159 314/427/159
f 302/384/161 309/383/161 317/428/161 310/423/161
f 263/375/171 264/374/171 319/429/171 318/430/171
f 270/362/172 263/375/172 318/430/172 325/431/172
f 268/366/173 269/363/173 324/432/173 323/433/173
f 266/370/174 267/367/174 322/434/174 321/435/174
f 264/374/175 265/371/175 320/436/175 319/429/175
f 269/363/176 270/362/176 325/431/176 324/432/176
f 267/367/177 268/366/177 323/433/177 322/434/177
f 265/371/178 266/370/178 321/435/178 320/436/178
f 325/431/179 318/430/179 326/437/179 333/438/179
f 323/433/180 324/432/180 332/439/180 331/440/180
f 321/435/181 322/434/181 330/441/181 329/442/181
f 319/429/182 320/436/182 328/443/182 327/444/182
f 324/432/183 325/431/183 333/438/183 332/439/183
f 322/434/184 323/433/184 331/440/184 330/441/184
f 320/436/185 321/435/185 329/442/185 328/443/185
f 318/430/186 319/429/186 327/444/186 326/437/186
f 328/443/187 329/442/187 337/445/187 336/446/187
f 326/437/188 327/444/188 335/447/188 334/448/188
f 333/438/189 326/437/189 334/448/189 341/449/189
f 331/440/190 332/439/190 340/450/190 339/451/190
f 329/442/191 330/441/191 338/452/191 337/445/191
f 327/444/192 328/443/192 336/446/192 335/447/192
f 332/439/193 333/438/193 341/449/193 340/450/193
f 330/441/194 331/440/194 339/451/194 338/452/194
f 340/450/195 341/449/195 349/453/195 348/454/195
f 338/452/196 339/451/196 347/455/196 346/456/196
f 336/446/197 337/445/197 345/457/197 344/458/197
f 334/448/198 335/447/198 343/459/198 342/460/198
f 341/449/199 334/448/199 342/460/199 349/453/199
f 339/451/200 340/450/200 348/454/200 347/455/200
f 337/445/201 338/452/201 346/456/201 345/457/201
f 335/447/202 336/446/202 344/458/202 343/459/202
f 345/457/203 346/456/203 354/461/203 353/462/203
f 343/459/204 344/458/204 352/463/204 351/464/204
f 348/454/205 349/453/205 357/465/205 356/466/205
f 346/456/206 347/455/206 355/467/206 354/461/206
f 344/458/207 345/457/207 353/462/207 352/463/207
f 342/460/208 343/459/208 351/464/208 350/468/208
f 349/453/209 342/460/209 350/468/209 357/465/209
f 347/455/210 348/454/210 356/466/210 355/467/210
f 357/465/211 350/468/211 358/469/211 365/470/211
f 355/467/212 356/466/212 364/471/212 363/472/212
f 353/462/213 354/461/213 362/473/213 361/474/213
f 351/464/214 352/463/214 360/475/214 359/476/214
f 356/466/215 357/465/215 365/470/215 364/471/215
f 354/461/216 355/467/216 363/472/216 362/473/216
f 352/463/217 353/462/217 361/474/217 360/475/217
f 350/468/218 351/464/218 359/476/218 358/469/218
g s5_pipe
v 0.749999 0.500000 0.530000
v 0.905562 0.500000 0.594436
v 0.969999 0.500000 0.750000
v 0.905562 0.500000 0.905563
v 0.749999 0.500000 0.970000
v 0.594435 0.500000 0.905563
v 0.529999 0.500000 0.750000
v 0.594435 0.500000 0.594436
v 0.749999 0.000000 0.530000
v 0.905562 0.000000 0.594436
v 0.969999 0.000000 0.750000
v 0.905562 0.000000 0.905563
v 0.749999 0.000000 0.970000
v 0.594435 0.000000 0.905563
v 0.529999 0.000000 0.750000
v 0.594435 0.000000 0.594436
vt 0.816951 0.018980
vt 0.816951 0.981912
vt 0.517357 0.981912
vt 0.517357 0.018980
vt 0.851252 0.017074
vt 0.851252 0.983818
vt 0.550471 0.983818
vt 0.550471 0.017074
vt 0.217762 0.018980
vt 0.217762 0.981912
vt 0.517357 0.981912
vt 0.517357 0.018980
vt 0.249691 0.017074
vt 0.249691 0.983818
vt 0.550471 0.983818
vt 0.550471 0.017074
vt 0.851252 0.983818
vt 0.851252 0.017074
vt 0.217762 0.981912
vt 0.217762 0.018980
vt 0.249691 0.983818
vt 0.249691 0.017074
vt 0.816951 0.981912
vt 0.816951 0.018980
vt 0.833993 0.844330
vt 0.494974 0.984756
vt 0.155956 0.844330
vt 0.974419 0.505312
vt 0.015530 0.505312
vt 0.494974 0.025867
vt 0.155956 0.166293
vt 0.833993 0.166293
vt 0.820102 0.179229
vt 0.190314 0.179229
vt 0.505208 0.048795
vt 0.950535 0.494123
vt 0.059880 0.494123
vt 0.820102 0.809016
vt 0.190314 0.809016
vt 0.505208 0.939450
vn -0.923877 0.000000 -0.382690
vn -0.382690 0.000000 0.923877
vn 0.923877 -0.000000 0.382690
vn 0.382690 -0.000000 -0.923877
vn -0.382690 0.000000 -0.923877
vn -0.923877 0.000000 0.382690
vn 0.382690 -0.000000 0.923877
vn 0.923877 -0.000000 -0.382690
vn -0.000000 -1.000000 0.000000
vn 0.000000 1.000000 0.000000
usemtl pipe_None
s off
f 373/477/219 381/478/219 380/479/219 372/480/219
f 371/481/220 379/482/220 378/483/220 370/484/220
f 369/485/221 377/486/221 376/487/221 368/488/221
f 367/489/222 375/490/222 374/491/222 366/492/222
f 366/492/223 374/491/223 381/493/223 373/494/223
f 372/480/224 380/479/224 379/495/224 371/496/224
f 370/484/225 378/483/225 377/497/225 369/498/225
f 368/488/226 376/487/226 375/499/226 367/500/226
f 381/501/227 374/502/227 375/503/227
f 380/504/227 381/501/227 375/503/227
f 380/504/227 375/503/227 376/505/227
f 376/505/227 378/506/227 380/504/227
f 377/507/227 378/506/227 376/505/227
f 378/506/227 379/508/227 380/504/227
f 373/509/228 367/510/228 366/511/228
f 372/512/228 367/510/228 373/509/228
f 372/512/228 368/513/228 367/510/228
f 371/514/228 368/513/228 372/512/228
f 371/514/228 369/515/228 368/513/228
f 370/516/228 369/515/228 371/514/228
g s6_pipeblock
v 0.500000 0.500000 0.500000
v 0.500000 0.500000 1.000000
v 0.000000 0.500000 1.000000
v 0.000000 0.500000 0.500000
v 0.500000 1.000000 0.500000
v 0.500000 1.000000 1.000000
v 0.000000 1.000000 1.000000
v 0.000000 1.000000 0.500000
v 0.500000 0.500000 0.500000
v 0.000000 0.500000 0.500000
v 0.499997 1.000000 0.500000
v 0.000000 1.000000 0.500000
v 0.500000 0.500000 1.000000
v 0.000000 0.500000 1.000000
v 0.499997 1.000000 1.000000
v 0.000000 1.000000 1.000000
v 0.000003 1.000000 0.500002
v 0.000003 0.500000 0.999999
v 0.000003 0.500000 0.499999
v 0.000003 1.000000 0.999999
v 0.500003 0.500000 0.499999
v 0.500003 0.500000 0.999999
v 0.500003 1.000000 0.500002
v 0.500003 1.000000 0.999999
vt 0.000000 0.000000
vt 1.000000 0.000000
vt 1.000000 1.000000
vt 0.000000 1.000000
vt 0.000000 0.000000
vt 1.000000 0.000000
vt 1.000000 1.000000
vt 0.000000 1.000000
vt 0.546543 0.002159
vt 0.993230 0.002159
vt 0.993230 0.502159
vt 0.546543 0.502159
vt 0.000000 0.500000
vt 0.557619 0.500000
vt 0.557619 1.000000
vt 0.000000 1.000000
vt 0.551001 0.493089
vt 0.551001 0.005817
vt 0.994183 0.005818
vt 0.994182 0.493089
vt 0.564936 0.000000
vt 0.997554 0.000000
vt 0.997554 0.500000
vt 0.564936 0.500000
vn 0.000000 -1.000000 0.000000
vn 0.000000 1.000000 0.000000
vn 0.000000 0.000000 -1.000000
vn 0.000000 0.000000 1.000000
vn -1.000000 0.000000 -0.000000
vn 1.000000 0.000000 0.000000
usemtl pipeblock_None
s off
f 382/517/229 383/518/229 384/519/229 385/520/229
f 386/521/230 389/522/230 388/523/230 387/524/230
usemtl pipeblock_None_grate
f 392/525/231 390/526/231 391/527/231 393/528/231
f 396/529/232 397/530/232 395/531/232 394/532/232
f 398/533/233 400/534/233 399/535/233 401/536/233
f 404/537/234 405/538/234 403/539/234 402/540/234
g s7_pipebend
v 0.750001 0.500000 0.530000
v 0.594438 0.500000 0.594436
v 0.530001 0.500000 0.750000
v 0.594438 0.500000 0.905563
v 0.750001 0.500000 0.970000
v 0.905565 0.500000 0.905563
v 0.970001 0.500000 0.750000
v 0.905565 0.500000 0.594436
v 0.750001 0.530000 0.530000
v 0.594438 0.530000 0.594436
v 0.530001 0.530000 0.750000
v 0.594438 0.530000 0.905563
v 0.750001 0.530000 0.970000
v 0.905565 0.530000 0.905563
v 0.970001 0.530000 0.750000
v 0.905565 0.530000 0.594436
v 0.970001 0.750000 0.530000
v 0.970001 0.905563 0.594436
v 0.970001 0.750000 0.970000
v 0.970001 0.594436 0.905563
v 0.970001 0.594436 0.594436
v 1.000001 0.750000 0.530000
v 1.000001 0.905564 0.594436
v 1.000001 0.970000 0.750000
v 1.000001 0.905563 0.905563
v 1.000001 0.750000 0.970000
v 1.000001 0.594436 0.905563
v 1.000001 0.530000 0.750000
v 1.000001 0.594436 0.594436
v 0.970001 0.970000 0.750000
v 0.970001 0.905563 0.905563
v 1.000001 0.750000 0.569164
v 1.000001 0.877870 0.622130
v 1.000001 0.930836 0.750000
v 1.000001 0.877870 0.877870
v 1.000001 0.750000 0.930835
v 1.000001 0.622130 0.877870
v 1.000001 0.569164 0.750000
v 1.000001 0.622130 0.622130
v 0.970001 0.750000 0.569164
v 0.970001 0.877870 0.622130
v 0.970001 0.930836 0.750000
v 0.970001 0.877870 0.877870
v 0.970001 0.750000 0.930835
v 0.970001 0.622130 0.877870
v 0.970001 0.569164 0.750000
v 0.970001 0.622130 0.622130
v 0.750001 0.500000 0.557658
v 0.613995 0.500000 0.613994
v 0.557659 0.500000 0.750000
v 0.613995 0.500000 0.886006
v 0.750001 0.500000 0.942341
v 0.886007 0.500000 0.886006
v 0.942343 0.500000 0.750000
v 0.886007 0.500000 0.613994
v 0.750001 0.530000 0.557658
v 0.613995 0.530000 0.613994
v 0.557659 0.530000 0.750000
v 0.613995 0.530000 0.886006
v 0.750001 0.530000 0.942341
v 0.886007 0.530000 0.886006
v 0.942343 0.530000 0.750000
v 0.886007 0.530000 0.613994
v 0.757263 0.586065 0.530000
v 0.607000 0.626327 0.594436
v 0.544759 0.643005 0.750000
v 0.607000 0.626327 0.905563
v 0.757263 0.586065 0.970000
v 0.907526 0.545802 0.905563
v 0.969766 0.529125 0.750000
v 0.907526 0.545802 0.594436
v 0.779022 0.639215 0.530000
v 0.644300 0.716997 0.594436
v 0.588497 0.749215 0.750000
v 0.644300 0.716997 0.905563
v 0.779022 0.639215 0.970000
v 0.913744 0.561433 0.905563
v 0.969548 0.529215 0.750000
v 0.913744 0.561433 0.594436
v 0.813797 0.684923 0.530000
v 0.703797 0.794923 0.594436
v 0.658233 0.840486 0.750000
v 0.703797 0.794923 0.905563
v 0.813797 0.684923 0.970000
v 0.923797 0.574923 0.905563
v 0.969360 0.529359 0.750000
v 0.923797 0.574923 0.594436
v 0.859216 0.720072 0.530000
v 0.781434 0.854794 0.594436
v 0.749216 0.910598 0.750000
v 0.781434 0.854794 0.905563
v 0.859216 0.720072 0.970000
v 0.936998 0.585350 0.905563
v 0.969216 0.529547 0.750000
v 0.936998 0.585350 0.594436
v 0.912185 0.742269 0.530000
v 0.871923 0.892532 0.594436
v 0.855245 0.954773 0.750000
v 0.871923 0.892532 0.905563
v 0.912185 0.742269 0.970000
v 0.952448 0.592006 0.905563
v 0.969126 0.529765 0.750000
v 0.952448 0.592006 0.594436
v 0.969970 0.749765 0.530000
v 0.969970 0.905329 0.594436
v 0.969970 0.969765 0.750000
v 0.969970 0.905329 0.905563
v 0.969970 0.749765 0.970000
v 0.969970 0.594202 0.905563
v 0.969970 0.529765 0.750000
v 0.969970 0.594202 0.594436
vt 0.159965 0.174725
vt 0.490675 0.037741
vt 0.821385 0.174725
vt 0.958369 0.505435
vt 0.821385 0.836145
vt 0.022980 0.505435
vt 0.490675 0.973130
vt 0.159965 0.836145
vt 0.813777 0.183676
vt 0.945850 0.502527
vt 0.494926 0.051604
vt 0.494926 0.953451
vt 0.176075 0.183676
vt 0.813777 0.821378
vt 0.044003 0.502527
vt 0.176075 0.821378
vt 0.274775 0.199144
vt 0.254152 0.197397
vt 0.310435 0.116660
vt 0.318312 0.132710
vt 0.397839 0.127506
vt 0.409532 0.109738
vt 0.442698 0.189733
vt 0.430589 0.190582
vt 0.420111 0.237961
vt 0.427331 0.242345
vt 0.397258 0.271566
vt 0.394015 0.264672
vt 0.356047 0.271083
vt 0.355362 0.279585
vt 0.302593 0.266042
vt 0.310003 0.257047
vt 0.257919 0.046524
vt 0.296837 0.124273
vt 0.084574 0.444434
vt 0.009383 0.431234
vt 0.390643 0.139756
vt 0.324535 0.144250
vt 0.288686 0.200208
vt 0.315763 0.250382
vt 0.356786 0.264351
vt 0.391406 0.259316
vt 0.414196 0.234763
vt 0.421325 0.191916
vt 0.233030 0.461845
vt 0.282539 0.484692
vt 0.287841 0.728571
vt 0.237192 0.748722
vt 0.941349 0.745217
vt 0.891789 0.722609
vt 0.882316 0.479275
vt 0.932722 0.459325
vt 0.703267 0.308984
vt 0.725768 0.259374
vt 0.455823 0.310667
vt 0.437303 0.259373
vt 0.449060 0.942003
vt 0.470812 0.892561
vt 0.718818 0.894282
vt 0.736744 0.945685
vt 0.680671 0.362431
vt 0.476866 0.364564
vt 0.335362 0.507290
vt 0.340350 0.705597
vt 0.493150 0.838757
vt 0.698490 0.840399
vt 0.839107 0.700634
vt 0.829263 0.501988
vt 0.495909 0.404228
vt 0.376468 0.521297
vt 0.378315 0.684823
vt 0.506956 0.796229
vt 0.680235 0.800637
vt 0.798200 0.687415
vt 0.666707 0.404422
vt 0.790562 0.522629
vt 0.384899 0.152820
vt 0.332016 0.155639
vt 0.321970 0.242679
vt 0.357511 0.256471
vt 0.388128 0.253672
vt 0.407407 0.232083
vt 0.411739 0.194651
vt 0.303032 0.200243
vt 0.355772 0.308884
vt 0.288488 0.286129
vt 0.241715 0.196573
vt 0.309503 0.115003
vt 0.415558 0.098509
vt 0.467548 0.188125
vt 0.451103 0.258101
vt 0.411014 0.297240
vt 0.267852 0.310396
vt 0.227864 0.195067
vt 0.308540 0.113293
vt 0.421724 0.085658
vt 0.499536 0.183418
vt 0.484798 0.278317
vt 0.430658 0.333564
vt 0.354599 0.348450
vt 0.534166 0.303933
vt 0.459000 0.385846
vt 0.349436 0.403722
vt 0.237317 0.338752
vt 0.212823 0.192125
vt 0.307523 0.111489
vt 0.427274 0.070978
vt 0.540501 0.172615
vt 0.196840 0.187226
vt 0.306442 0.109573
vt 0.431638 0.054395
vt 0.593310 0.150483
vt 0.610418 0.336444
vt 0.501529 0.464411
vt 0.335360 0.484857
vt 0.191119 0.370725
vt 0.661589 0.107301
vt 0.738194 0.377620
vt 0.568283 0.588220
vt 0.300318 0.613076
vt 0.181498 0.180491
vt 0.305287 0.107530
vt 0.434096 0.037340
vt 0.119472 0.404022
vt 0.009288 0.416103
vt 0.167442 0.169311
vt 0.303965 0.105204
vt 0.431992 0.018984
vt 0.733636 0.018984
vt 0.990747 0.392590
vt 0.736824 0.901946
vt 0.175591 0.829135
vn 1.000000 0.000000 0.000000
vn 0.000000 -1.000000 0.000000
vn 0.923877 0.000000 -0.382690
vn 0.382690 0.000000 0.923877
vn -0.923877 0.000000 0.382690
vn -0.382690 0.000000 -0.923877
vn 0.382690 0.000000 -0.923877
vn 0.923877 0.000000 0.382690
vn -0.382690 0.000000 0.923877
vn -0.923877 0.000000 -0.382690
vn 0.000000 -0.382690 0.923877
vn -0.000000 0.382690 -0.923877
vn -0.000000 -0.382690 -0.923877
vn -0.000000 -0.923877 -0.382690
vn -0.000000 0.923877 0.382690
vn 0.000000 -0.923877 0.382690
vn 0.000000 0.382690 0.923877
vn -0.000000 0.923877 -0.382690
vn -0.382300 0.049700 -0.922701
vn 0.382397 -0.049100 -0.922693
vn 0.918934 -0.106304 0.379814
vn -0.382300 0.049700 0.922701
vn -0.917258 0.119695 -0.379883
vn 0.918934 -0.106304 -0.379814
vn 0.382397 -0.049100 0.922693
vn -0.917258 0.119695 0.379883
vn 0.357099 -0.145299 -0.922696
vn 0.864287 -0.329795 0.379794
vn -0.356605 0.146402 0.922713
vn -0.855397 0.352099 -0.379899
vn 0.864287 -0.329795 -0.379794
vn 0.357099 -0.145299 0.922696
vn -0.855397 0.352099 0.379899
vn -0.356605 0.146402 -0.922713
vn -0.735108 0.561506 0.379904
vn -0.306510 0.233708 -0.922731
vn 0.307306 -0.232705 -0.922719
vn 0.749467 -0.542276 0.379783
vn -0.306510 0.233708 0.922731
vn -0.735108 0.561506 -0.379904
vn 0.749467 -0.542276 -0.379783
vn 0.307306 -0.232705 0.922719
vn 0.583578 -0.717774 -0.379786
vn 0.236606 -0.304307 0.922722
vn -0.564793 0.732591 0.379895
vn -0.235604 0.305105 -0.922714
vn 0.236606 -0.304307 -0.922722
vn 0.583578 -0.717774 0.379786
vn -0.235604 0.305105 0.922714
vn -0.564793 0.732591 -0.379895
vn -0.148602 0.355704 0.922709
vn -0.355907 0.853816 -0.379907
vn 0.377887 -0.844371 -0.379787
vn 0.149801 -0.355203 0.922708
vn -0.355907 0.853816 0.379907
vn -0.148602 0.355704 -0.922709
vn 0.149801 -0.355203 -0.922708
vn 0.377887 -0.844371 0.379787
vn 0.049201 -0.382310 -0.922723
vn 0.109799 -0.918490 0.379896
vn -0.049800 0.382298 0.922696
vn -0.119804 0.917231 -0.379913
vn 0.109799 -0.918490 -0.379896
vn 0.049201 -0.382310 0.922723
vn -0.119804 0.917231 0.379913
vn -0.049800 0.382298 -0.922696
usemtl pipebend_None
s off
f 450/541/235 451/542/235 452/543/235
f 452/543/235 445/544/235 450/541/235
f 445/544/235 446/545/235 449/546/235
f 445/544/235 449/546/235 450/541/235
f 447/547/235 448/548/235 446/545/235
f 446/545/235 448/548/235 449/546/235
f 468/549/236 467/550/236 461/551/236
f 467/550/236 465/552/236 462/553/236
f 466/554/236 465/552/236 467/550/236
f 465/552/236 463/555/236 462/553/236
f 467/550/236 462/553/236 461/551/236
f 465/552/236 464/556/236 463/555/236
usemtl pipebend_None_plain
f 413/557/237 421/558/237 420/559/237 412/560/237
f 411/561/238 419/562/238 418/563/238 410/564/238
f 409/565/239 417/566/239 416/567/239 408/568/239
f 407/569/240 415/570/240 414/571/240 406/572/240
f 406/572/241 414/571/241 421/558/241 413/557/241
f 412/560/242 420/559/242 419/562/242 411/561/242
f 410/564/243 418/563/243 417/566/243 409/565/243
f 408/573/244 416/574/244 415/575/244 407/576/244
f 412/560/236 411/561/236 458/577/236 459/578/236
f 406/572/236 413/557/236 460/579/236 453/580/236
f 407/569/236 406/572/236 453/580/236 454/581/236
f 409/565/236 408/568/236 455/582/236 456/583/236
f 411/561/236 410/564/236 457/584/236 458/577/236
f 413/557/236 412/560/236 459/578/236 460/579/236
f 425/585/245 432/586/245 431/587/245 424/588/245
f 423/589/246 428/590/246 427/591/246 422/592/246
f 422/592/247 427/591/247 434/593/247 426/594/247
f 426/594/248 434/593/248 433/595/248 420/596/248
f 436/597/249 430/598/249 429/599/249 435/600/249
f 420/596/250 433/595/250 432/586/250 425/585/250
f 424/588/251 431/587/251 430/598/251 436/597/251
f 435/600/252 429/599/252 428/590/252 423/589/252
f 433/595/235 434/593/235 444/601/235 443/602/235
f 431/587/235 432/586/235 442/603/235 441/604/235
f 429/599/235 430/598/235 440/605/235 439/606/235
f 427/591/235 428/590/235 438/607/235 437/608/235
f 434/593/235 427/591/235 437/608/235 444/601/235
f 432/586/235 433/595/235 443/602/235 442/603/235
f 430/598/235 431/587/235 441/604/235 440/605/235
f 428/590/235 429/599/235 439/606/235 438/607/235
f 442/603/252 443/602/252 451/609/252 450/610/252
f 440/605/247 441/604/247 449/611/247 448/612/247
f 438/607/250 439/606/250 447/613/250 446/614/250
f 443/602/249 444/601/249 452/615/249 451/609/249
f 441/604/246 442/603/246 450/610/246 449/611/246
f 439/606/248 440/605/248 448/612/248 447/613/248
f 437/608/245 438/607/245 446/614/245 445/616/245
f 444/601/251 437/608/251 445/616/251 452/615/251
f 410/564/236 409/565/236 456/583/236 457/584/236
f 408/568/236 407/569/236 454/581/236 455/582/236
f 459/578/244 458/577/244 466/617/244 467/618/244
f 454/581/238 453/580/238 461/619/238 462/620/238
f 456/583/237 455/582/237 463/621/237 464/622/237
f 458/577/240 457/584/240 465/623/240 466/617/240
f 460/579/239 459/578/239 467/618/239 468/624/239
f 455/582/242 454/581/242 462/620/242 463/621/242
f 457/584/241 456/583/241 464/622/241 465/623/241
f 453/580/243 460/579/243 468/624/243 461/619/243
f 414/571/253 415/570/253 470/625/253 469/626/253
f 421/558/254 414/571/254 469/626/254 476/627/254
f 419/562/255 420/559/255 475/628/255 474/629/255
f 417/566/256 418/563/256 473/630/256 472/631/256
f 415/570/257 416/567/257 471/632/257 470/625/257
f 420/559/258 421/558/258 476/627/258 475/628/258
f 418/563/259 419/562/259 474/629/259 473/630/259
f 416/567/260 417/566/260 472/631/260 471/632/260
f 476/627/261 469/626/261 477/633/261 484/634/261
f 474/629/262 475/628/262 483/635/262 482/636/262
f 472/631/263 473/630/263 481/637/263 480/638/263
f 470/625/264 471/632/264 479/639/264 478/640/264
f 475/628/265 476/627/265 484/634/265 483/635/265
f 473/630/266 474/629/266 482/636/266 481/637/266
f 471/632/267 472/631/267 480/638/267 479/639/267
f 469/626/268 470/625/268 478/640/268 477/633/268
f 479/639/269 480/638/269 488/641/269 487/642/269
f 477/633/270 478/640/270 486/643/270 485/644/270
f 484/634/271 477/633/271 485/644/271 492/645/271
f 482/636/272 483/635/272 491/646/272 490/647/272
f 480/638/273 481/637/273 489/648/273 488/641/273
f 478/640/274 479/639/274 487/642/274 486/643/274
f 483/635/275 484/634/275 492/645/275 491/646/275
f 481/637/276 482/636/276 490/647/276 489/648/276
f 491/646/277 492/645/277 500/649/277 499/650/277
f 489/648/278 490/647/278 498/651/278 497/652/278
f 487/642/279 488/641/279 496/653/279 495/654/279
f 485/644/280 486/643/280 494/655/280 493/656/280
f 492/645/281 485/644/281 493/656/281 500/649/281
f 490/647/282 491/646/282 499/650/282 498/651/282
f 488/641/283 489/648/283 497/652/283 496/653/283
f 486/643/284 487/642/284 495/654/284 494/655/284
f 496/653/285 497/652/285 505/657/285 504/658/285
f 494/655/286 495/654/286 503/659/286 502/660/286
f 499/650/287 500/649/287 508/661/287 507/662/287
f 497/652/288 498/651/288 506/663/288 505/657/288
f 495/654/289 496/653/289 504/658/289 503/659/289
f 493/656/290 494/655/290 502/660/290 501/664/290
f 500/649/291 493/656/291 501/664/291 508/661/291
f 498/651/292 499/650/292 507/662/292 506/663/292
f 508/661/293 501/664/293 509/665/293 516/666/293
f 506/663/294 507/662/294 515/667/294 514/668/294
f 504/658/295 505/657/295 513/669/295 512/670/295
f 502/660/296 503/659/296 511/671/296 510/672/296
f 507/662/297 508/661/297 516/666/297 515/667/297
f 505/657/298 506/663/298 514/668/298 513/669/298
f 503/659/299 504/658/299 512/670/299 511/671/299
f 501/664/300 502/660/300 510/672/300 509/665/300
